<?xml version="1.0" encoding="UTF-8" standalone="no"?>
<!DOCTYPE svg  PUBLIC '-//W3C//DTD SVG 1.1//EN'  'http://www.w3.org/Graphics/SVG/1.1/DTD/svg11.dtd'>
<svg xmlns="http://www.w3.org/2000/svg" xmlns:xlink="http://www.w3.org/1999/xlink" version="1.1">
 <metadata>Created by FontForge 20150430 at Sun May 31 12:28:53 2015
 By Etienne
Copyright (c) 2009 by interstices.io. All rights reserved.</metadata>
 <defs>
  <font id="ManifontGroteskBoldItalic" horiz-adv-x="596">
   <font-face underline-position="-100" font-weight="400" descent="-250" panose-1="0 0 0 0 0 0 0 0 0 0" stemh="145" units-per-em="1000" unicode-range="U+0020-FB05" stemv="124" bbox="-99.9229 -252 4625 1037.79" x-height="520" underline-thickness="50" font-family="Manifont Grotesk Bold Italic" ascent="750" font-style="italic" cap-height="735"/>
   <missing-glyph d="M50 0v500h400v-500h-400zM100 50h300v400h-300v-400z" horiz-adv-x="500"/>
   <glyph glyph-name="uniFB00" horiz-adv-x="829" unicode="ff" d="M14.1514 -84.7715l60.6582 33.3223l26.3613 73.8135l73.9873 378.694h-72.7344l0.09375 119.004h93.2588l3.99707 26.4326l66.4404 138.979l134.485 54.8047l67.2695 -5.1875l40.5508 -9.81543l-35.374 -125.676l-55.0146 10.1211l-43.0137 -13.7529l-25.3506 -47.5508 l-4.16797 -28.3877l264.16 0.0332031l3.99707 26.4326l66.4404 138.979l134.485 54.8047l67.2695 -5.1875l40.5508 -9.81543l-35.374 -125.676l-55.0146 10.1211l-43.0137 -13.7529l-25.3506 -47.5508l-4.16797 -28.3877h92.415l-0.0078125 -119.005h-115.44 l-84.1055 -434.81l-71.7646 -133.382l-141.405 -52.3301l-77.79 12.0742l33.9141 128.749l32.7373 -6.09766l60.6582 33.3223l26.3613 73.8135l73.9873 378.694l-266.575 -0.0341797l-84.1055 -434.81l-71.7646 -133.382l-141.405 -52.3301l-77.79 12.0742l33.9141 128.749z "/>
   <glyph glyph-name="uniFB01" horiz-adv-x="672" unicode="fi" d="M14.1514 -84.7715l60.6582 33.3223l26.3613 73.8135l73.9873 378.694h-72.7344l0.09375 119.004h93.2588l3.99707 26.4326l66.4404 138.979l134.485 54.8047l67.2695 -5.1875l40.5508 -9.81543l-35.374 -125.676l-55.0146 10.1211l-43.0137 -13.7529l-25.3506 -47.5508 l-4.16797 -28.3877l247.409 -0.0292969h119.992l-102 -535l-145 26l74.3271 390.024h-217.762l-84.1055 -434.81l-71.7646 -133.382l-141.405 -52.3301l-77.79 12.0742l33.9141 128.749zM638.5 732.75l78.7422 -15.7021l32.2881 -43.4941l-14.7275 -74.1221 l-46.4551 -27.8633l-78.7432 15.7031l-32.2881 43.4932l14.7275 74.1221z"/>
   <glyph glyph-name="uniFB02" horiz-adv-x="675" unicode="fl" d="M14.1514 -84.7715l60.6582 33.3223l26.3613 73.8135l73.9873 378.694h-72.7344l0.09375 119.004h93.2588l3.99707 26.4326l66.4404 138.979l134.485 54.8047l67.2695 -5.1875l40.5508 -9.81543l-35.374 -125.676l-55.0146 10.1211l-43.0137 -13.7529l-25.3506 -47.5508 l-4.16797 -28.3877h218.003l41.1484 214.971l145 -27.75l-138.5 -722.25l-144.75 27.75l74.3223 388.274h-218.257l-84.1055 -434.81l-71.7646 -133.382l-141.405 -52.3301l-77.79 12.0742l33.9141 128.749z"/>
   <glyph glyph-name="uniFB03" horiz-adv-x="1087" unicode="ffi" d="M14.1514 -84.7715l60.6582 33.3223l26.3613 73.8135l73.9873 378.694h-72.7344l0.09375 119.004h93.2588l3.99707 26.4326l66.4404 138.979l134.485 54.8047l67.2695 -5.1875l40.5508 -9.81543l-35.374 -125.676l-55.0146 10.1211l-43.0137 -13.7529l-25.3506 -47.5508 l-4.16797 -28.3877l264.254 0.0332031l3.99707 26.4326l66.4404 138.979l134.485 54.8047l67.2695 -5.1875l40.5508 -9.81543l-35.374 -125.676l-55.0146 10.1211l-43.0137 -13.7529l-25.3506 -47.5508l-4.16797 -28.3877l367.401 -0.0292969l-102 -535l-145 26 l74.3271 390.024h-217.762l-84.1055 -434.81l-71.7646 -133.382l-141.405 -52.3301l-77.79 12.0742l33.9141 128.749l32.7373 -6.09766l60.6582 33.3223l26.3613 73.8135l73.9873 378.694l-266.669 -0.0341797l-84.1055 -434.81l-71.7646 -133.382l-141.405 -52.3301 l-77.79 12.0742l33.9141 128.749zM1052.58 732.75l78.7422 -15.7021l32.2881 -43.4941l-14.7275 -74.1221l-46.4551 -27.8633l-78.7432 15.7031l-32.2881 43.4932l14.7275 74.1221z"/>
   <glyph glyph-name="uniFB04" horiz-adv-x="1087" unicode="ffl" d="M1025 -15l-144.75 27.75l74.3223 388.274h-217.931l-84.1055 -434.81l-71.7646 -133.382l-141.405 -52.3301l-77.79 12.0742l33.9141 128.749l32.7373 -6.09766l60.6582 33.3223l26.3613 73.8135l73.9873 378.694l-266.669 -0.0341797l-84.1055 -434.81 l-71.7646 -133.382l-141.405 -52.3301l-77.79 12.0742l33.9141 128.749l32.7373 -6.09766l60.6582 33.3223l26.3613 73.8135l73.9873 378.694h-72.7344l0.09375 119.004h93.2588l3.99707 26.4326l66.4404 138.979l134.485 54.8047l67.2695 -5.1875l40.5508 -9.81543 l-35.374 -125.676l-55.0146 10.1211l-43.0137 -13.7529l-25.3506 -47.5508l-4.16797 -28.3877l264.254 0.0332031l3.99707 26.4326l66.4404 138.979l134.485 54.8047l67.2695 -5.1875l40.5508 -9.81543l-35.374 -125.676l-55.0146 10.1211l-43.0137 -13.7529 l-25.3506 -47.5508l-4.16797 -28.3877l217.672 -0.0244141l41.1533 214.995l145 -27.75z"/>
   <glyph glyph-name="uniFB05" horiz-adv-x="801" unicode="ft" d="M14.1514 -84.7715l60.6582 33.3223l26.3613 73.8135l73.9873 378.694h-72.7344l0.09375 119.004h93.2588l3.99707 26.4326l66.4404 138.979l134.485 54.8047l67.2695 -5.1875l40.5508 -9.81543l-35.374 -125.676l-55.0146 10.1211l-43.0137 -13.7529l-25.3506 -47.5508 l-4.16797 -28.3877l254.441 -0.0283203l30.0332 160.999l145.947 -27.4062l-25.9316 -133.593h77.2168l-0.318359 -118.924h-98.9316l-40.2295 -206.814l-5.07812 -56.3867l37.6475 -22.0107l42.8555 5.9541l16.3193 -113.221l-130.433 -25.3838l-110.666 43.6387 l-10.3984 121.146l50.0977 253.077l-255.605 -0.0527344l-84.1055 -434.81l-71.7646 -133.382l-141.405 -52.3301l-77.79 12.0742l33.9141 128.749z"/>
   <glyph glyph-name=".notdef" d="M50 0v500h400v-500h-400zM100 50h300v400h-300v-400z" horiz-adv-x="500"/>
   <glyph glyph-name="space" horiz-adv-x="278" unicode=" "/>
   <glyph glyph-name="exclam" horiz-adv-x="259" unicode="!" d="M118.783 155.659l78.7422 -15.7021l32.2881 -43.4941l-14.7275 -74.1221l-46.4551 -27.8633l-78.7432 15.7031l-32.2881 43.4932l14.7275 74.1221zM230 228l-113.25 18l73.5 489l154.75 -23z"/>
   <glyph glyph-name="quotedbl" horiz-adv-x="459" unicode='&quot;' d="M384.709 678.122l53.457 44.7861h64.457l36.1152 -44.7949l-20.9844 -108.174l-48.7324 -103.359l-70.7881 -48.8213l-36.5098 56.3564l50.5615 32.9902l29.9619 62.834h-33.6865l-36.127 44.8213zM180.454 678.122l53.457 44.7861h64.4561l36.1162 -44.7949 l-20.9844 -108.174l-48.7324 -103.359l-70.7891 -48.8213l-36.5088 56.3564l50.5615 32.9902l29.9619 62.834h-33.6865l-36.1279 44.8213z"/>
   <glyph glyph-name="numbersign" horiz-adv-x="698" unicode="#" d="M434 -14.75l-121 58.75l63 131h-91l-91 -189.75l-121 58.75l63 131h-100v125h160l60 125h-108v125h167l89.25 185l121.5 -59l-60.75 -126h90l89.25 185l121.5 -59l-60.75 -126h99v-125h-159l-60 -125h107v-125h-167zM405 425l-60 -125h91l60 125h-91z"/>
   <glyph glyph-name="dollar" d="M422.26 841.838l72.46 -14.1533l-17.249 -88.4766l141.539 -64.8926l27.165 -139.116l-156.56 -25.3164l-8.12207 50.7822l-32.5928 31.7822l-28.5703 -145.825l156.845 -74.9102l36.8379 -165.726l-106.223 -163.839l-178.018 -63.7012l-20.1504 -101.694 l-72.3887 14.0254l17.2617 88.6895l-157.115 76.5859l-30.0547 160.142l157.08 19.3799l9.56543 -76.6973l49.0947 -34.6064l34.6924 181.537l-160.749 86.3848l-14.1484 126.875l96.6055 160.036l162.982 62.1455zM348.285 460.902l26.5293 135.713l-49.2236 -23.3115 l-22.7021 -39.9561l4.1416 -42.3721zM416.149 276.219l-26.2598 13.1836l-32.7363 -167.258l57.3164 24.6895l31.1846 53.709l-2.0918 42.8984z" unicode="$"/>
   <glyph glyph-name="percent" horiz-adv-x="770" unicode="%" d="M286.479 724.925l101.703 -43.8164l22.1738 -121.153l-69.2314 -121.069l-118.751 -43.9092l-101.703 43.8838l-22.1748 121.095l69.2334 121.095zM236.75 -14.75l-91 66l498.5 683.75l91.5 -66.5zM243.464 500.096l35.1895 13.3994l24.749 46.543l-6.92969 46.4355 l-30 13.499l-35.2725 -13.3994l-25.583 -46.5352l7.60449 -46.4766zM659.278 325.037l101.817 -43.8174l22.2266 -121.161l-69.3047 -121.203l-118.762 -43.8584l-101.734 43.8916l-22.1436 121.17l69.2842 121.128zM615.347 100.041l35.377 13.4824l25.5605 46.6191 l-7.72949 46.376l-30.3652 13.5576l-35.2207 -13.457l-24.7178 -46.4766l6.97852 -46.5605z"/>
   <glyph glyph-name="ampersand" horiz-adv-x="638" unicode="&amp;" d="M473.209 -20.9141l-33.9209 53.0117l-84.0908 -40.2568l-96.4883 -14.2119l-159.719 58.2422l-29.0479 144.718l56.7363 120.311l94.1064 80.4473l-32.4912 65.6162l-4.24414 106.744l85.0938 138.315l155.627 50.3652l139.587 -59.8145l17.4629 -118.745 l-38.7939 -90.4844l-84.585 -76.7725l-61.7207 -37.4834l69.2139 -113.26l15.3594 49.7129l8.60938 51.1992l127.716 -20.9092l-25.6689 -92.248l-53.9043 -104.07l48.9883 -80.082l-113.825 -70.3857v0.0410156zM285.068 100.074l50.3809 7.22852l44.4922 21.5605 l-101.016 162.068l-44.2373 -44.9814l-24.1055 -55.0781l16.6113 -67.9795zM422.786 513.505l25.3711 50.6631l-8.57812 39.8887l-41.4209 16.2275l-53.6533 -20.9053l-26.8701 -45.3311l-0.509766 -47.4834l22.9277 -53.5371z"/>
   <glyph glyph-name="quotesingle" horiz-adv-x="259" unicode="&apos;" d="M183.456 678.122l53.458 44.7861h64.4561l36.1152 -44.7949l-6.1582 -31.7402l-14.8252 -76.4336l-48.7334 -103.359l-70.7881 -48.8213l-36.5088 56.3564l50.5605 32.9902l29.9629 62.834h-33.6875l-36.127 44.8213z"/>
   <glyph glyph-name="parenleft" horiz-adv-x="351" unicode="(" d="M388.786 829.195l78.6885 -65.2754l-110.607 -153.726l-83.2129 -250.366l-14.5723 -250.206l56.667 -171.392l-109.523 -47.4307l-93.1504 213.498l2.50879 255.53l96.7432 255.817z"/>
   <glyph glyph-name="parenright" horiz-adv-x="351" unicode=")" d="M101.068 -109.2l-78.6885 65.2754l110.607 153.726l83.2129 250.366l14.5723 250.206l-56.667 171.392l109.523 47.4307l93.1504 -213.498l-2.50879 -255.53l-96.7432 -255.817z"/>
   <glyph glyph-name="asterisk" horiz-adv-x="399" unicode="*" d="M362.23 738.24l-19.3809 -102l91.8008 47.9395l37.7393 -118.319l-102 -13.2607l73.4404 -71.3994l-100.98 -73.4404l-43.8594 93.8398l-45.9004 -92.8193l-100.979 73.4395l74.46 71.4004l-99.96 14.2803l37.7393 118.319l89.7607 -48.96l-16.3203 100.98h124.44z"/>
   <glyph glyph-name="plus" d="M423 300l-36 -186l-130 25l31 161h-180v125h204l36 185l130.25 -25.25l-31.25 -159.75h157v-125h-181z" unicode="+"/>
   <glyph glyph-name="comma" horiz-adv-x="251" unicode="," d="M69.2061 108.122l53.458 44.7861h64.4561l36.1152 -44.7949l-6.1582 -31.7402l-14.8252 -76.4336l-48.7334 -103.359l-70.7881 -48.8213l-36.5088 56.3564l50.5605 32.9902l29.9629 62.834h-33.6875l-36.127 44.8213z"/>
   <glyph glyph-name="hyphen" horiz-adv-x="370" unicode="-" d="M357 192h-270v136h270v-136z"/>
   <glyph glyph-name="period" horiz-adv-x="251" unicode="." d="M114.617 155.619l78.7422 -15.7021l32.2881 -43.4941l-14.7275 -74.1221l-46.4551 -27.8633l-78.7432 15.7031l-32.2881 43.4932l14.7275 74.1221z"/>
   <glyph glyph-name="slash" horiz-adv-x="401" unicode="/" d="M134 -100l-125.75 58.75l396.75 861.25l127.75 -59z"/>
   <glyph glyph-name="zero" d="M440.687 742.749l184.897 -112.094l8.88574 -270.371l-113.919 -270.379l-227.817 -112.085l-185.026 112.085l-9.77734 270.379l114.843 270.371zM231 238l226 364l-40.7168 13.3291l-107.606 -75.0391l-67.8125 -179.877l-8.55566 -62.4775zM501.908 480.519 l-224.396 -363.082l39.7939 -12.374l107.447 75.0723l66.9502 179.853l9.69434 63.0811z" unicode="0"/>
   <glyph glyph-name="one" d="M413 -15l-149.5 28.25l87.4775 451.75l-54.2168 -46.377l-94.6689 -18.5605l-24.0918 121.938l190.65 83.3477l82.3623 114.657h103.954z" unicode="1"/>
   <glyph glyph-name="two" d="M557.113 145.035l-28.6133 -145.035h-474.128l96.9873 222.898l174.088 143.307l111.837 83.042l45.3848 80.0479l-13.5625 56.6855l-54.8857 17.7158l-69.5029 -22.6494l-46.7334 -82.2842l-138.686 20.4121l99.7607 165.691l184.836 61.6777l157.062 -53.3506 l34.6816 -165.854l-83.2344 -146.395l-142.096 -110.486l-100.761 -68.4814l-41.0703 -56.9414h288.636z" unicode="2"/>
   <glyph glyph-name="three" d="M372.5 460.856l60.8398 24.2656l27.8896 56.3877l-7.875 52.959l-45.1826 18.4648l-60.5098 -23.6689l-35.3193 -67.9883l-116.343 60.7236l73.1465 106.211l165.384 54.3115l148.037 -48.0693l38.6035 -140.611l-47.6904 -99.1582l-92.0137 -54.8311l89.2715 -68.082 l10.6387 -124.767l-103.099 -168.32l-189.574 -61.1748l-162.77 56.5908l-35.9346 120.9l151.852 43.8398l16.5381 -57.2725l57.8643 -21.2969l71 25.1162l41.1543 71.7383l-9.6084 77.3779l-73.126 31.4434h-52.9736l26.5293 134.91h53.2705z" unicode="3"/>
   <glyph glyph-name="four" d="M471 -15l-149.25 28.25l24.25 127.75h-252v140l394 455l123.75 -24l-83.75 -431h87v-140h-114zM244 281h129l39 199z" unicode="4"/>
   <glyph glyph-name="five" d="M228 215l21.1631 -65.8799l63.8662 -23.9883l85.9375 35.4619l43.1084 89.418l-10.3994 81.9717l-72.5459 33.1523l-60.0117 -15.0254l-44.9424 -42.165l-139.133 20.0107l144.968 391.884h383.887l-0.147461 -144.883h-300.793l-39.9307 -104.035l45.8193 23.3467 l66.1367 10.6641l159.89 -74.2334l24.0928 -180.771l-105.1 -188.325l-210.763 -76.6025l-158.254 53.6895l-42.0986 129.31z" unicode="5"/>
   <glyph glyph-name="six" d="M494.287 530.323l-19.2705 55.6562l-49.1807 18.9229l-89.0254 -54.5498l-57.9062 -140.254l57.3643 39.709l71.2012 14.4492l153.533 -69.5781l25.0312 -165.105l-94.2354 -176.025l-185.174 -75.9141l-182.773 103.155l-5.99609 253.709l127.684 305.785 l211.927 102.279l135.114 -51.2754l37.4199 -113.287zM326.097 120.396l76.335 28.9414l42.0273 74.0273l-13.2441 74.0352l-65.4092 28.9414l-76.4629 -28.9414l-42.665 -74.0352l12.0312 -74.0273z" unicode="6"/>
   <glyph glyph-name="seven" d="M171.072 574.95l28.0098 145.05h470.918l-28.0928 -145.05l-203.416 -258.132l-128.491 -331.818l-136 52l106.851 280.16l200.999 257.79h-310.777z" unicode="7"/>
   <glyph glyph-name="eight" d="M254.119 399.726l-62.0078 56.8203l-6.26855 97.2539l90.6318 137.932l164.289 50.749l145.604 -50.749l36.8701 -137.932l-43.4814 -97.3213l-83.9785 -56.7529l80.29 -77.7441l8.47852 -122.248l-101.93 -160.803l-189.808 -61.3789l-165.055 61.4727l-38.8486 160.709 l55.0889 122.215zM320.443 120.314l71.0625 25.7529l42.1113 76.1953l-12.2646 77.4453l-61.1152 25.5322l-70.6172 -25.498l-41.5381 -77.4795l11.6602 -76.1611zM384.641 452.863l54.4512 22.0371l29.1338 56.5322l-7.0166 56.3867l-46.043 22.0107l-53.9209 -22.0107 l-28.7295 -56.3867l6.6084 -56.5664z" unicode="8"/>
   <glyph glyph-name="nine" d="M242 193l23.8848 -54.4141l53.1426 -18.5273l86.0098 53.4805l47.8701 137.504l-56.2373 -38.8467l-69.8066 -14.084l-150.481 68.0645l-24.498 161.843l92.3564 172.583l181.574 74.4258l181.972 -89.9102l4.84375 -259.966l-121.938 -303.532l-202.843 -96.5225 l-137.518 50.3291l-38.3311 100.573zM406.975 594.981l-74.8594 -28.375l-41.0977 -72.583l12.9414 -72.6416l64.0859 -28.3086l74.9434 28.3086l41.9307 72.6416l-11.9316 72.583z" unicode="9"/>
   <glyph glyph-name="colon" horiz-adv-x="250" unicode=":" d="M176.189 476.96l78.7422 -15.7021l32.2881 -43.4932l-14.7285 -74.123l-46.4551 -27.8623l-78.7432 15.7031l-32.2881 43.4922l14.7285 74.123zM124.048 207.681l78.7422 -15.7012l32.2881 -43.4941l-14.7285 -74.123l-46.4551 -27.8623l-78.7432 15.7031 l-32.2881 43.4922l14.7285 74.123z"/>
   <glyph glyph-name="semicolon" horiz-adv-x="251" unicode=";" d="M176.189 476.96l78.7422 -15.7021l32.2881 -43.4932l-14.7285 -74.123l-46.4551 -27.8623l-78.7432 15.7031l-32.2881 43.4922l14.7285 74.123zM69.2061 108.122l53.458 44.7861h64.4561l36.1152 -44.7949l-20.9834 -108.174l-48.7334 -103.359l-70.7881 -48.8213 l-36.5088 56.3564l50.5605 32.9902l29.9629 62.834h-33.6875l-36.127 44.8213z"/>
   <glyph glyph-name="less" d="M167 281l27 137l424 229l61.75 -114l-369.75 -183l224 -139l-77.75 -127.25z" unicode="&lt;"/>
   <glyph glyph-name="equal" d="M588 185h-483l-0.25 135h483zM631 405h-483l-1.25 135h483z" unicode="="/>
   <glyph glyph-name="greater" d="M574 417l-27 -137l-424 -229l-61.75 114l369.75 183l-224 139l77.75 127.25z" unicode="&gt;"/>
   <glyph glyph-name="question" d="M281.47 155.619l78.7422 -15.7021l32.2881 -43.4941l-14.7275 -74.1221l-46.4551 -27.8633l-78.7432 15.7031l-32.2881 43.4932l14.7275 74.1221zM259.588 230.017l3.69531 18.7441l43.0693 103.317l84.3916 75.0723l60.0742 47.8652l25.6367 53.1475l-13.3066 51.5654 l-59.2246 17.8262l-62.8369 -25.8809l-42.1758 -77.0967l-143.701 30.5322l106.319 158.021l169.008 57.0166l164.428 -55.877l40.5811 -150.068l-58.3096 -113.924l-141.438 -120.685l-26.6885 -61.209l-7.14453 -35.7119l-142.377 27.0889z" unicode="?"/>
   <glyph glyph-name="at" horiz-adv-x="775" unicode="@" d="M585.977 208.276l23.1816 -24.7832l47.6699 27.8193l27.8369 66.1426l-31.4824 177.438l-165.277 61.2422l-184.281 -73.7539l-100.23 -182.361l26.7754 -186.818l165.987 -78.2197l81.6826 12.5791l70.2666 36.2305l47.9629 -92.8525l-101.392 -50.4375 l-119.947 -17.8438l-247.788 109.51l-48.8818 267.853l151.662 267.827l281.822 109.543l240.04 -99.2949l49.4863 -257.579l-76.0371 -141.811l-134.071 -56.9902l-63.5068 16.3037l-28.2402 37.8633l-12.333 -13.2676l-45.6514 -30.7363l-62.4219 -10.0781 l-93.6709 49.5488l-16.4434 129.011l66.4092 128.637l113.09 49.9316l47.415 -9.3125l32.1738 -25.3779l5.1875 25.5898l89.6191 -17.084l-33.8389 -175.083zM448.109 336.463l-47.8613 -21.7559l-25.6055 -54.6016l4.24512 -55.1123l38.6143 -22.2656l49.2334 22.2656 l26.2734 55.1123l-5.99512 54.6016z"/>
   <glyph glyph-name="A" horiz-adv-x="730" unicode="A" d="M443 735l150.25 -89l123.75 -632l-159 -29l-27 145h-287l-78 -144l-124 68zM463 521l-144 -259h190z"/>
   <glyph glyph-name="B" horiz-adv-x="694" unicode="B" d="M69.9307 0.0498047l137.976 719.905h307.249l175.62 -39.4541l44.6943 -144.353l-46.2363 -96.0293l-100.697 -64.084l93.2354 -61.1934l19.0059 -110.053l-107.298 -164.28l-209.015 -40.459h-314.534zM247.72 125.098h150.845l95.0107 20.1221l42.9238 59.5693 l-21.3857 75.0049l-94.8506 25.2959h-137.58zM307.172 429.973h131.542l90.0156 25.4551l42.6318 68.6514l-23.1709 55.3066l-88.9834 15.6152h-120.214z"/>
   <glyph glyph-name="C" horiz-adv-x="741" unicode="C" d="M410.446 120.352l105.938 31.1963l77.5576 96.1816l112.169 -90.7119l-102.763 -119.418l-220.537 -59.8408l-240.868 108.216l-39.7305 274.078l148.292 274.267l285.276 108.199l208.165 -67.835l44.7852 -139.246l-150.999 -53.96l-32.6289 89.7188l-96.7861 28.5586 l-150.1 -63.5908l-87.4756 -176.025l16.666 -176.17z"/>
   <glyph glyph-name="D" horiz-adv-x="714" unicode="D" d="M70.0225 0.0498047l137.891 719.905h242.196l260.331 -86.6104l41.5264 -271.34l-139.864 -270.6l-291.324 -91.3555h-250.756zM256.996 144.065h65.7383l171.336 43.5127l91.7471 175.448l-31.7803 178.482l-149.759 33.4951h-64.1787z"/>
   <glyph glyph-name="E" horiz-adv-x="667" unicode="E" d="M607 0h-537l138 720h499v-145h-367l-26 -135h316.75v-145h-344.75l-29 -150h350v-145z"/>
   <glyph glyph-name="F" horiz-adv-x="637" unicode="F" d="M227 -15l-154.25 29.5l135.25 705.5h489v-145h-357l-26 -135h277v-145h-305z"/>
   <glyph glyph-name="G" horiz-adv-x="761" unicode="G" d="M417.271 120.457l94.5635 12.2139l61.4658 30.6426l19.4717 97.8242h-147.928l-0.136719 124.357h328.561l-54.165 -278.306l-140.158 -95.2373l-189.14 -34.0879l-249.809 108.216l-40.8242 274.078l149.45 274.267l294.151 108.199l206.38 -61.3887l39.3535 -126.42 l-152.88 -52.8291l-24.9658 71.8242l-95.4375 25.9648l-159.027 -63.5908l-88.75 -176.026l17.9629 -176.093z"/>
   <glyph glyph-name="H" horiz-adv-x="757" unicode="H" d="M227 -15l-154.25 29.5l138 720.5l154.5 -29.5l-51.25 -265.5h297l57 295l154.25 -29.5l-138 -720.25l-154.5 29.5l53.25 280.25h-297z"/>
   <glyph glyph-name="I" horiz-adv-x="300" unicode="I" d="M227 -15l-154.25 29.5l138 720.5l154.5 -29.5z"/>
   <glyph glyph-name="J" horiz-adv-x="572" unicode="J" d="M219.934 245.086l1.09473 -87.4004l58.9268 -32.5605l77.9863 37.8887l32.9697 100.157l91.0889 471.829l155.25 -29.5l-90.2002 -467.418l-108.726 -196.505l-185.129 -56.332l-157.566 54.0303l-35.6289 202.725z"/>
   <glyph glyph-name="K" horiz-adv-x="730" unicode="K" d="M227.25 -14.75l-154.5 29.5l138.25 720.25l154.25 -29.5l-57.25 -296.5l343.75 326l88.25 -94l-250 -226l182 -360l-152.25 -69.75l-148.75 323.75l-100 -91z"/>
   <glyph glyph-name="L" horiz-adv-x="638" unicode="L" d="M608 0h-538l140.75 735l154.5 -29.5l-108.25 -560.5h351v-145z"/>
   <glyph glyph-name="M" horiz-adv-x="923" unicode="M" d="M227.25 -15l-154.5 29.5l138 720.5l201.25 -38.25l86 -503.75l301.25 542l187.75 -36l-136.75 -713.5l-154.5 29.5l81.25 428l-256 -457.5l-138 77.5l-69 380z"/>
   <glyph glyph-name="N" horiz-adv-x="769" unicode="N" d="M223.25 -14.75l-150.5 28.75l138 720.75l167.25 -31.5l214 -444.25l91.75 475.75l150.5 -28.75l-138 -720.75l-167.5 32l-215.75 443.75z"/>
   <glyph glyph-name="O" horiz-adv-x="765" unicode="O" d="M525.02 742.215l237.117 -108.268l38.2119 -274.197l-144.318 -274.266l-278.877 -108.198l-238.298 108.268l-37.0312 274.196l143.202 274.173zM404.702 120.049l144.382 63.5742l83.1592 175.872l-14.9121 176.119l-119.69 63.498l-145.083 -63.5918l-82.458 -176.025 l14.21 -175.872z"/>
   <glyph glyph-name="P" horiz-adv-x="672" unicode="P" d="M72.5 13.25l135.446 706.75h279.929l190.818 -48.6582l53.8994 -189.804l-108.063 -182.43l-224.32 -69.2246h-126.004l-47.7051 -245.884zM300.234 370.32h113.155l112.069 36.1113l40.8994 71.96l-15.9961 70.7168l-97.1787 30.8984h-112.364z"/>
   <glyph glyph-name="Q" horiz-adv-x="765" unicode="Q" d="M525.467 742.943l237.117 -108.268l38.2119 -274.197l-50.7422 -148.58l-86.0664 -119.419l44.0127 -62.4795l-116 -89l-48 70l-80.8604 -24.2773l-85.5391 -8.70801l-238.33 108.267l-36.999 274.197l143.202 274.173zM518.95 300.858l57.2852 -82.9658l33.624 64.8779 l22.6611 77.708l-14.8486 176.061l-119.755 63.5566l-145.04 -63.5918l-82.416 -176.025l14.1787 -176.051l120.425 -63.5654l55.9355 8.1377l-57.0342 82.9658z"/>
   <glyph glyph-name="R" horiz-adv-x="690" unicode="R" d="M299.234 370.32h112.155l112.069 36.1113l40.8994 71.96l-17.0654 65.71l-97.1787 30.8984h-110.114zM72.75 13.25l135.25 707.75l277.875 -1l190.818 -48.6582l53.8994 -189.804l-108.063 -182.43l-47.0879 -15.0039l114.854 -227.96l-155.295 -71.1445 l-114.295 249.802l-22.4961 -7.16797h-125.504l-45.7051 -242.634z"/>
   <glyph glyph-name="S" horiz-adv-x="647" unicode="S" d="M231.1 235.562l23.4902 -90.1348l93.7676 -25.0801l88.1445 18.4814l47.6475 62.042l-8.42773 48.7422l-55.9395 31.7822l-154.075 47.959l-108.562 83.2881l-7.6748 106.244l111.56 168.668l190.383 54.7041l195.006 -55.3076l31.4414 -131.108l-151.025 -38.7422 l-15.7725 61.1504l-83.1172 21.415l-81.7041 -18.6172l-36.7441 -47.6279l2.87109 -33.9258l31.8223 -23.21l69.7246 -24.2217l96.5098 -28.7549l117.745 -74.1543l22.9795 -143.095l-122.264 -172.437l-204.082 -56.124l-206.273 66.4316l-38.3906 151.852z"/>
   <glyph glyph-name="T" horiz-adv-x="697" unicode="T" d="M409.25 -14.75l-154.5 28.75l107.25 561h-222v145h632v-145h-250z"/>
   <glyph glyph-name="U" horiz-adv-x="753" unicode="U" d="M664 735l154 -30l-77.1738 -404.141l-123.562 -236.301l-248.427 -87.0645l-214.064 87.0645l-32.5039 236.301l83.2305 433.141l154 -29l-75.3525 -388.832l10.7354 -148.121l102.439 -42.5166l118.012 42.5166l67.6953 148.121z"/>
   <glyph glyph-name="V" horiz-adv-x="740" unicode="V" d="M428 -15l-147.25 87l-125.5 636.25l160.25 26.75l89.5 -536l303.5 536l122.5 -69z"/>
   <glyph glyph-name="W" horiz-adv-x="1030" unicode="W" d="M378 0l-194 86l-31 632.25l167 1.75l8 -545l239.5 560l180.5 -77l25 -483l219.75 560l142.75 -55.75l-299.75 -693.75l-188.5 81.25l-32.25 461.25z"/>
   <glyph glyph-name="X" horiz-adv-x="722" unicode="X" d="M191.5 -14.75l-105.75 89.25l264.25 298.5l-148.25 295.75l156 66.25l103.25 -243l203.5 243l106.25 -88.25l-244.75 -278.75l152.5 -319l-148.25 -63.5l-114.25 264.5z"/>
   <glyph glyph-name="Y" horiz-adv-x="705" unicode="Y" d="M430.25 -14.75l-155.25 29.5l52 278.25l-159 379l148.75 63l124.25 -292l234 292l104 -82l-291 -360z"/>
   <glyph glyph-name="Z" horiz-adv-x="662" unicode="Z" d="M612 0h-399.25l-135.75 145l456 430h-353v145h398.5l133.5 -145l-461 -430h361v-145z"/>
   <glyph glyph-name="bracketleft" horiz-adv-x="357" unicode="[" d="M309 -140h-277l187 960h250l1 -135h-122l-134 -690h95v-135z"/>
   <glyph glyph-name="backslash" horiz-adv-x="401" unicode="\" d="M380.25 -89.5l-153.25 -10.5l-67 908.5l154 11.5z"/>
   <glyph glyph-name="bracketright" horiz-adv-x="357" unicode="]" d="M269 -140h-276v135h148l134 690h-122v135h303z"/>
   <glyph glyph-name="asciicircum" d="M368 720h137l101 -249l-114.75 -47.25l-72.5 206l-167 -223.25l-80.75 63.5z" unicode="^"/>
   <glyph glyph-name="underscore" horiz-adv-x="656" unicode="_" d="M630 0h-580l-0.25 125h580z"/>
   <glyph glyph-name="grave" horiz-adv-x="324" unicode="`" d="M258.25 806l110 -273l-91.5 -37.25l-147.5 224.25z"/>
   <glyph glyph-name="a" horiz-adv-x="551" unicode="a" d="M67.541 17.6221l-30.292 111.609l79.0566 123.329l161.578 49.0303l118.363 24.4004l3.06152 12.333l-8.34277 51.7861l-60.957 25.7607l-69.1924 -24.7754l-37.9453 -53.793l-98.4111 68.8154l88.793 99.9805l148.388 34.1738l155.882 -51.0977l26.7383 -174.231 l-62.2607 -329.943l-138.515 26.2783l5.90527 38.6191l-78.7812 -55.2051l-86.4326 -15.2842zM378.985 234.335l-98.9746 -26.5361l-60.3818 -21.9082l-28.3047 -46.5381l7.39941 -31.6807l42.5996 -14.1523l70.9678 21.2793l53.4316 47.9326z"/>
   <glyph glyph-name="b" horiz-adv-x="587" unicode="b" d="M336.2 707.449l-44.3496 -230.236l66.0791 48.4941l68.4385 12.6465l150.588 -70.6162l28.9111 -209.899l-107.213 -209.747l-175.259 -70.5996l-76.5791 19.5947l-46.7988 57.7832l-13.0176 -69.8691l-134.73 26.501l138.73 723.499zM316.254 104.869l83.5947 37.4883 l53.0498 115.48l-7.16992 115.547l-71.3945 37.4209l-85.1895 -37.4209l-51.4541 -115.547l9.4707 -115.445z"/>
   <glyph glyph-name="c" horiz-adv-x="540" unicode="c" d="M530.27 489.577l32.124 -164.045l-150.45 -12.4941l-5.97461 71.4795l-60.2227 28.4824l-81.6504 -39.3691l-47.8496 -113.601l3.31641 -113.531l66.8291 -39.4365l65.1543 20.5566l46.1504 67.1113l105.792 -72.9424l-78.3691 -98.4141l-163.046 -43.6904 l-164.735 66.7383l-34.0654 213.608l116.321 213.694l190.554 66.8232z"/>
   <glyph glyph-name="d" horiz-adv-x="578" unicode="d" d="M656.033 707.41l-139.033 -722.41l-135.357 26.0195l8.22168 43.8496l-69.7676 -57.8164l-84.3076 -19.5615l-148.037 70.5996l-26.3594 209.747l109.721 209.899l177.767 70.6162l64.1543 -12.6211l48.0859 -48.5195l49.8799 257.787zM352.108 410.806 l-85.7002 -37.4209l-51.9639 -115.547l8.85449 -115.48l68.6084 -37.4883l84.168 37.4883l53.4951 115.48l-6.65039 115.547z"/>
   <glyph glyph-name="e" horiz-adv-x="556" unicode="e" d="M272.002 -20.5557l-169.912 66.7383l-39.1777 213.608l121.839 213.694l195.24 66.8232l148.611 -39.8877l61.498 -132.303l-69.9697 -119.562l-159.442 -32.3867h-152.969l19.9814 -82.0635l78.9092 -27.0283l63.4541 17.9707l40.6221 43.1631l87.6836 -81.6094 l-63.0029 -67.0146zM230.082 320.074h139.79l46.0332 12.834l16.124 34.9551l-25.7539 33.8496l-54.7695 10.9629l-73.3389 -24.4863z"/>
   <glyph glyph-name="f" horiz-adv-x="414" unicode="f" d="M14.1514 -84.7715l60.6582 33.3223l26.3613 73.8135l73.9873 378.694h-72.7344l0.09375 119.004h93.2588l3.99707 26.4326l66.4404 138.979l134.485 54.8047l67.2695 -5.1875l40.5508 -9.81543l-35.374 -125.676l-55.0146 10.1211l-43.0137 -13.7529l-25.3506 -47.5508 l-4.16797 -28.3877h92.415l-0.0078125 -119.005h-115.44l-84.1055 -434.81l-71.7646 -133.382l-141.405 -52.3301l-77.79 12.0742l33.9141 128.749h0.000976562z"/>
   <glyph glyph-name="g" horiz-adv-x="575" unicode="g" d="M214.246 -227.477l-138.918 32.25l-56.9053 100.307l33.3105 68.2939l105.373 33.6631l-89.2178 89.1396l-8.7373 170.966l106.756 207.306l174.865 68.0225l76.7393 -19.6465l47.6602 -57.9014l12.8281 70.0771l134.835 -25.5488l-94.3711 -492.132l-90.3418 -171.79z M157.883 -18.9033l-6.9834 -28.9932l22.958 -47.457l62.752 -13.8457l89.0479 36.5879l42.4951 87.8047l5.1875 27.5557l-65.2607 -40.3984l-68.3213 -10.6221l-34.3516 2.2959l-32.0576 6.88867h-0.000976562zM347.744 414.923l-82.7129 -34.9043l-52.9951 -112.707 l8.00293 -113.038l71.585 -34.9121l85.0732 34.9463l50.6357 113.004l-9.56641 112.707z"/>
   <glyph glyph-name="h" horiz-adv-x="584" unicode="h" d="M50.4346 11.5l138.815 723.5l144.831 -27.5498l-49.4619 -250.471l71.3398 62.5791l83.585 18.9648l139.321 -62.7314l8.77246 -157.502l-63.8877 -333.29l-145.34 26.0195l57.9072 303.111l-4.65723 70.8369l-58.3516 24.9883l-74.5283 -32.123l-47.7451 -96.2754 l-55.7852 -296.558l-144.812 26.3311z"/>
   <glyph glyph-name="i" horiz-adv-x="258" unicode="i" d="M224.5 732.75l78.7422 -15.7021l32.2881 -43.4941l-14.7275 -74.1221l-46.4551 -27.8633l-78.7432 15.7031l-32.2881 43.4932l14.7275 74.1221zM197 -15l-145 26l100 524l144 -30z"/>
   <glyph glyph-name="j" horiz-adv-x="261" unicode="j" d="M227 733l78.7422 -15.7021l32.2881 -43.4941l-14.7275 -74.1221l-46.4551 -27.8633l-78.7432 15.7031l-32.2881 43.4932l14.7275 74.1221zM-57.9912 -72.123l19.1113 -4.91992l14.7334 -1.08398l57.8125 32.6689l23.3008 72.6162l98.0332 507.842l144.5 -27.5 l-102.484 -535.606l-71.7334 -133.158l-139.258 -51.2461l-44.0371 3.58496l-41.9102 10.4141z"/>
   <glyph glyph-name="k" horiz-adv-x="578" unicode="k" d="M578.068 387.124h-16.0088l-38.6279 -9.79688l-65.5127 -78.2041l-48.8311 -24.9551l-1 -4.00293l44.4736 -32.335l35.4707 -64.5371l44.4678 -145.543l-152.5 -42.75l-44.9385 164.204l-27.874 39.0391l-48.0693 11.8984h-22.0078l-39.7637 -214.906l-144.847 27.5146 l138.25 722.25l144.823 -27.7402l-74.7012 -382.154h22.0918l35.8662 5.33594l38.2432 28.667l36.4609 49.9785l27.6455 43.9746l72.4629 55.5654l93.3457 11.373h31.0117z"/>
   <glyph glyph-name="l" horiz-adv-x="260" unicode="l" d="M196.25 -15l-144.75 27.75l138.25 722.25l145 -27.75z"/>
   <glyph glyph-name="m" horiz-adv-x="862" unicode="m" d="M49.5117 12.9922l99.4883 522.008l135.574 -26.0225l-11.0049 -59.2715l75.6025 69.8086l91.7373 20.8379l91.3115 -25.5488l40.2305 -72.2412l79.248 75.2939l93.0234 22.4961l111.177 -46.8457l16.1045 -135.304l-70.2539 -373.203l-144.375 28.3125l57.7568 304.85 l-0.680664 67.5371l-44.1943 26.3398l-70.1621 -31.4854l-44.665 -88.7559l-58.1797 -306.798l-144.604 28.5674l57.7568 304.85l-3.76758 72.8955l-41.1318 20.9814l-74.3594 -38.9014l-42.9824 -103.946l-54.1621 -284.446z"/>
   <glyph glyph-name="n" horiz-adv-x="584" unicode="n" d="M50.75 13l99.5 522l135.625 -26.0186l-11.0752 -60.4609l78.0059 70.4717l87.123 21.3643l139.397 -62.7324l8.47168 -157.003l-64.0479 -335.621l-144.554 28.3164l57.7568 302.646l-4.86523 70.8369l-58.3086 24.9873l-74.54 -32.1221l-47.8184 -96.2754 l-56.1709 -298.39l-144.5 27.8301v0.169922z"/>
   <glyph glyph-name="o" horiz-adv-x="572" unicode="o" d="M380.265 540.365l171.751 -66.8232l37.2529 -213.694l-119.509 -213.608l-197.568 -66.7383l-171.856 66.7383l-37.2324 213.608l119.521 213.694zM296.596 106.88l89.4092 39.4365l50.3809 113.531l-6.96582 113.601l-73.4775 39.3691l-89.3867 -39.3691 l-50.4873 -113.601l7.00879 -113.531z"/>
   <glyph glyph-name="p" horiz-adv-x="588" unicode="p" d="M24.4512 -182.55l137.549 717.55l135.108 -25.8154l-8.22266 -44.4385l68.8311 57.9697l84.1367 19.5781l148.007 -70.6162l26.3916 -209.901l-109.731 -209.747l-177.841 -70.5996l-63.9961 12.5537l-47.2236 48.5889l-48.46 -252.572zM325.535 108.723l86.1465 37.4902 l51.5186 115.479l-8.56738 115.547l-68.8965 37.4219l-83.7539 -37.4219l-53.9102 -115.547l7.00879 -115.445z"/>
   <glyph glyph-name="q" horiz-adv-x="588" unicode="q" d="M333.08 -181.893l43.3311 224.633l-67.0146 -48.6406l-68.6084 -12.6719l-150.557 70.6162l-28.9424 209.9l107.212 209.748l175.258 70.5986l76.708 -19.5947l47.6914 -57.7832l12.8418 70.0869l134.976 -25.6973l-137.976 -719.303l-144.918 27.9385zM350.987 414.828 l-83.2129 -37.4219l-53.4307 -115.547l7.52637 -115.479l71.043 -37.4902l85.5713 37.4902l51.0723 115.479l-9.08789 115.547z"/>
   <glyph glyph-name="r" horiz-adv-x="462" unicode="r" d="M52.25 12.75v0.0830078h0.0419922l99.708 522.167l136 -26l-14.9746 -79.1699l72.1094 81.7783l91.8652 26.2568l50.5703 -5.83691l45.4297 -25.0283l-58.0693 -132.068l-30.9805 13.7832l-40.0449 6.25293l-105.048 -44.125l-54.8428 -119.844l-46.7646 -245.749z"/>
   <glyph glyph-name="s" horiz-adv-x="515" unicode="s" d="M176.747 169.476l24.8398 -53.4697l69.0342 -18.9746l65.165 10.4189l39.8477 42.5586l-6.42188 28.2188l-26.3174 13.6172l-139.704 27.5469l-82.2666 48.8174l-18.749 102.96l90.4609 130.142l162.589 39.0723l146.656 -51.0889l22.6865 -93.6328l-121.557 -40.8135 l-18.9395 54.3809l-56.5664 13.8965l-60.9248 -10.5371l-34.9053 -37.251l4.2959 -22.8955l27.252 -13.8379l136.559 -25.5908l83.2119 -43.2637l25.8818 -115.828l-89.2178 -131.172l-174.801 -43.2305l-151.387 47.8145l-34.7871 87.3184z"/>
   <glyph glyph-name="t" horiz-adv-x="385" unicode="t" d="M235.064 -16.7852l-110.666 43.6387l-10.3984 121.146l50.0977 253.077h-74.1709l0.0878906 118.924h95.9521l30.0332 160.999l145.947 -27.4062l-25.9316 -133.593h77.2168l-0.318359 -118.924h-98.9316l-40.2295 -206.814l-5.07812 -56.3867l37.6475 -22.0107 l42.8555 5.9541l16.3193 -113.221z"/>
   <glyph glyph-name="u" horiz-adv-x="574" unicode="u" d="M513.75 -15l-135.627 26.0195l11.248 60.1367l-78.8643 -70.3184l-87.2842 -21.3477l-139.301 62.7324l-7.85742 157.502l64.1855 335.275l144.635 -27.8477l-57.75 -303.269l4.29395 -70.9824l57.8633 -25.0127l74.5293 32.1396l47.7441 96.4287l56.9346 298.793 l144.783 -27.584z"/>
   <glyph glyph-name="v" horiz-adv-x="555" unicode="v" d="M326.25 -14.75l-131.25 77.9893l-6.75 4.01074l-95.75 441.25l146.75 26.5l62.75 -351l201.5 351l112.25 -64z"/>
   <glyph glyph-name="w" horiz-adv-x="771" unicode="w" d="M270 -15l-131 61l-53.75 480.25l151 8.75l15.75 -367l161.5 367l126.75 -54.75l16.75 -301.25l162 356l118 -55l-248.5 -494.75l-126.75 62.75l-20.75 301z"/>
   <glyph glyph-name="x" horiz-adv-x="575" unicode="x" d="M170 -15l-103 81l173 200l-99.5 212.25l150.75 56.75l61.75 -163l124.5 163l104.25 -79l-155.75 -187l103 -223l-145.5 -61l-74.5 175z"/>
   <glyph glyph-name="y" horiz-adv-x="556" unicode="y" d="M93.0244 -75.958l57.3535 13.6416l50.6016 53.4639l8.00391 14.0078l-55.4697 277.845l-45.7637 228.25l148.835 23.751l56.4355 -357.872l192.982 357.872l113.997 -61.251l-283.054 -502.605l-111.956 -140.437l-131.964 -45.4678l-49.4863 4.83594l-44.54 12.9238 l26.0049 135z"/>
   <glyph glyph-name="z" horiz-adv-x="517" unicode="z" d="M444 0h-278.75l-112.25 125l299 270h-228v125h298.25l110.75 -125l-304 -270h215v-125z"/>
   <glyph glyph-name="braceleft" horiz-adv-x="349" unicode="{" d="M457.417 701.673h-36.8184l-47.1279 -33.2373l-18.1748 -73.7373l-26.5303 -135.704l-37.7637 -70.1143l-52.8789 -31.8418l40.8145 -31.8428l10.2041 -70.1055l-25.5088 -135.704l-11.3516 -73.8223l33.7998 -33.3223h36.8184l-23.4688 -121.424l-35.6699 -6.97461 l-44.8545 -3.14648l-110.104 52.2275l-9.02344 133.477l27.3799 137.659l-8.70508 71.5264l-45.374 20.3096l24.4893 122.275l52.8027 20.2422l35.9688 71.585l26.5293 137.668l61.0625 133.298l130.766 52.2363l43.4932 -3.23242l32.7793 -6.88867z"/>
   <glyph glyph-name="bar" horiz-adv-x="280" unicode="|" d="M280 -100h-160v920h160v-920z"/>
   <glyph glyph-name="braceright" horiz-adv-x="349" unicode="}" d="M29.583 12.3271h36.8184l47.1279 33.2373l18.1748 73.7373l26.5303 135.704l37.7637 70.1143l52.8789 31.8418l-40.8145 31.8428l-10.2041 70.1055l25.5088 135.704l11.3516 73.8223l-33.7998 33.3223h-36.8184l23.4688 121.424l35.6699 6.97461l44.8545 3.14648 l110.104 -52.2275l9.02344 -133.477l-27.3799 -137.659l8.70508 -71.5264l45.374 -20.3096l-24.4893 -122.275l-52.8027 -20.2422l-35.9688 -71.585l-26.5293 -137.668l-61.0625 -133.298l-130.766 -52.2363l-43.4932 3.23242l-32.7793 6.88867z"/>
   <glyph glyph-name="asciitilde" horiz-adv-x="526" unicode="~" d="M8.65527 356.94l171.159 104.986l75.7314 15.377l98.4219 -45.9092l83.1182 -45.918l80.5654 20.377l71.3838 51.0469l66.8096 -93.585l-170.706 -105.345l-75.6885 -15.3506l-98.4326 45.918l-83.1914 45.918l-80.4922 -20.3779l-71.3721 -51.0459z"/>
   <glyph glyph-name="exclamdown" horiz-adv-x="259" unicode="¡" d="M190.5 525.5l78.7422 -15.7021l32.2881 -43.4941l-14.7275 -74.1221l-46.4551 -27.8633l-78.7432 15.7031l-32.2881 43.4932l14.7275 74.1221zM131 310l113.25 -18l-73.5 -489l-154.75 23z"/>
   <glyph glyph-name="cent" horiz-adv-x="540" unicode="¢" d="M222 -18l-135.664 78.7061l-23.2031 199.073l100.209 199.159l166.658 79.0615l20.25 104l72.5 -14l-17.5 -89.25l135.519 -60.8613l24.127 -164.962h-153.055l-0.0839844 57.8848l-31.7568 36.1885l-58 -296l43.7764 29.3545l31.8115 54.3799l113.271 -66.3115 l-70.9902 -95.0684l-142.869 -52.3545l-20.5 -103.5l-72.165 14.2881zM247 114l57 291l-55.2783 -52.2363l-32.7891 -92.8135l-2.94238 -93.8848z"/>
   <glyph glyph-name="currency" d="M436 160l-111.884 -26.2939l-102.116 27.2939l-75 -64l-75 93l80 68l0.864258 101.961l40.1357 102.039l-54 69l111 93l51 -64l111.637 26.498l102.113 -26.498l75.25 64l75 -93l-82 -69.5l0.203125 -101.539l-39.2031 -101.961l54 -68l-111 -93zM350.645 270.362 l61.5947 22.3936l36.2764 67.4785l-9.68359 67.4004l-52.4736 22.3086l-60.5527 -22.3086l-38.4238 -67.4004l10.5879 -67.5723z" unicode="¤"/>
   <glyph glyph-name="yen" horiz-adv-x="705" unicode="¥" d="M274.75 14.25l17.1162 93.7031h-149.97l0.00488281 74.8594h164.971l9.00293 45.1016h-149.97l-0.995117 74.8594h158.968l-155.878 369.227l149 63l125.92 -292.18l232.08 292.18l104 -82l-282.145 -350.227h129.968l-0.00390625 -74.8594h-149.971l-8.83594 -45.1016 h134.97l-0.0888672 -74.8594h-150.054l-22.5898 -122.703z"/>
   <glyph glyph-name="brokenbar" horiz-adv-x="280" unicode="¦" d="M280 -100h-160v425h160v-425zM120 410v410h160v-410h-160z"/>
   <glyph glyph-name="section" horiz-adv-x="533" unicode="§" d="M210.619 159.175l13.6465 -49.3965l64.9219 -14.8926l60.9014 11.2275l25.8281 32.6494l-12.2334 27.1572l-176.533 58.5547l-66.1221 42.8389l-16.4424 88.6982l37.8066 73.6182l44.7578 34.4619l-37.6797 51.0889l-1.00879 70.165l95.5527 120.387l160.474 36.9111 l154.797 -42.4639l20.7422 -61.7227l-134.64 -61.1992l-15.8164 34.3086l-49.4863 13.6504l-59.9473 -8.96484l-21.6826 -25.7344l10.4268 -26.4502l156.828 -51.9482l86.4756 -49.7715l20.6621 -100.221l-31.0049 -62.3496l-45.3525 -41.8096l33.0664 -50.3916 l-0.416992 -68.8223l-93.6602 -124.536l-171.464 -36.5967l-163.726 43.9609l-33.0674 98.46zM283.999 332.547l86.7314 -25.5576l29.9736 14.5098l16.9629 28.3467l-5.3252 32.1406l-28.3467 16.8311l-82.6484 23.2178l-25.0098 -11.0732l-18.9521 -31.6123 l3.80469 -30.6523z"/>
   <glyph glyph-name="copyright" horiz-adv-x="590" unicode="©" d="M345.044 534.782l186.951 -76.7021l72.9746 -198.314l-72.9746 -198.105l-186.951 -76.7441l-186.879 76.6865l-72.9639 198.163l72.9326 198.247zM345.044 78.8701l120.407 52.9639l41.5664 127.932l-41.6289 127.698l-120.345 53.3643l-120.304 -53.3301 l-41.5879 -127.732l41.5879 -127.932zM345.044 205.91l25.1436 8.54688l13.9531 23.5547l63.1094 -37.5117l-28.6904 -51.9814l-73.5156 -22.7217l-86.917 40.4404l-29.958 93.5283l29.958 93.6123l86.917 40.3486l73.5469 -22.6055l27.6592 -50.3711l-62.1094 -39.0635 l-13.9531 22.1299l-25.1436 7.83789l-30.7617 -14.75l-11.2539 -37.1885l11.2852 -38.8301z"/>
   <glyph glyph-name="guillemotleft" horiz-adv-x="471" unicode="«" d="M261 263l197.25 227l75.75 -58l-126 -169l61 -169l-107 -39zM71 263l197.25 227l75.75 -58l-126 -169l61 -169l-107 -39z"/>
   <glyph glyph-name="registered" horiz-adv-x="590" unicode="®" d="M340.843 540.235l190.691 -78.2363l74.4326 -202.281l-74.4326 -202.067l-190.691 -78.2793l-190.691 78.2207l-74.4326 202.126l74.4326 202.212zM340.843 75.2051l122.783 54.0225l42.4307 130.49l-42.4941 130.253l-122.72 54.4307l-122.72 -54.3965 l-42.4941 -130.287l42.4307 -130.49zM320.352 222.042h-7.14355v-87.498h-77.4619v265.038v0l48.9336 0.0078125h48.9355l75.9736 -16.168l36.1816 -61.3789l-18.1016 -47.4922l-44.0557 -20.9561l35.3193 -22.0107l20.7158 -34.9541l15.5947 -39.3906l-76.8164 -22.6875 l-13.1797 44.6416l-20.5986 36.3848zM331.744 329.11h-18.3662l-0.0849609 -37.6689v0l19.4717 -0.00878906l26.7852 4.84766l6.88672 15.4111l-8.16309 13.3359z"/>
   <glyph glyph-name="degree" horiz-adv-x="366" unicode="°" d="M292.948 738.077l103.185 -43.0693l42.7275 -102.756l-42.7275 -103.189l-103.185 -42.8057l-102.791 42.8057l-43.0361 103.189l43.0684 102.756zM292.948 541.324l34.8193 14.8594l14.1582 36.1533l-14.1582 34.4453l-34.8193 14.5342l-35.8516 -14.5342 l-15.252 -34.4453l15.2842 -36.2227z"/>
   <glyph glyph-name="plusminus" d="M439 385l-30 -156l-130 25l25 131h-170v135h197l36 185l130 -25l-31 -160h144v-135h-171zM572.25 55h-502.25l-0.25 135h502.25z" unicode="±"/>
   <glyph glyph-name="paragraph" horiz-adv-x="636" unicode="¶" d="M194 -85l96.917 501.021l-139.13 56.6074l-27.3428 141.381l95.4189 155.14l183.011 50.8457h363.052l-0.00585938 -85.0322h-80.9453l-161.975 -834.963l-159.939 14.833l158.939 820.13h-88.9482l-161.975 -834.963l-77.0352 14.833z"/>
   <glyph glyph-name="periodcentered" horiz-adv-x="251" unicode="·" d="M150.722 342.613l78.7422 -15.7021l32.2881 -43.4941l-14.7275 -74.1221l-46.4551 -27.8633l-78.7432 15.7031l-32.2881 43.4932l14.7275 74.1221z"/>
   <glyph glyph-name="guillemotright" horiz-adv-x="471" unicode="»" d="M311 263l-197.25 -227l-75.75 58l126 169l-61 169l107 39zM501 263l-197.25 -227l-75.75 58l126 169l-61 169l107 39z"/>
   <glyph glyph-name="questiondown" d="M356.75 525.25l78.7422 -15.7021l32.2881 -43.4941l-14.7275 -74.1221l-46.4551 -27.8633l-78.7432 15.7031l-32.2881 43.4932l14.7275 74.1221zM428.215 290.106l-3.69531 -18.7441l-43.0684 -103.317l-84.3926 -75.0723l-60.0742 -47.8652l-25.6367 -53.1465 l13.3066 -51.5664l59.2246 -17.8262l62.8369 25.8809l42.1758 77.0967l143.701 -30.5322l-106.319 -158.021l-169.008 -57.0166l-164.428 55.877l-40.5811 150.068l58.3096 113.924l141.438 120.685l26.6885 61.209l7.14453 35.7119l142.377 -27.0889z" unicode="¿"/>
   <glyph glyph-name="Agrave" horiz-adv-x="730" unicode="À" d="M506 1012l75.25 -186l-99.25 -41l-96.75 147zM443 735l150.25 -89l123.75 -632l-159 -29l-27 145h-287l-78 -144l-124 68zM463 521l-144 -259h190z"/>
   <glyph glyph-name="Aacute" horiz-adv-x="730" unicode="Á" d="M502 1012l121 -80l-97 -147l-99 41zM434 720h144l142 -720h-165l-24 130h-287l-71 -130h-163zM463 521l-144 -259h190z"/>
   <glyph glyph-name="Acircumflex" horiz-adv-x="730" unicode="Â" d="M481 980h137l67 -165.75l-111 -45.25l-42.25 120.75l-103.75 -138.75l-78.5 62zM443 735l150.25 -89l123.75 -632l-159 -29l-27 145h-287l-78 -144l-124 68zM463 521l-144 -259h190z"/>
   <glyph glyph-name="Atilde" horiz-adv-x="730" unicode="Ã" d="M284.52 880.921l140.543 81.8145l50.2002 8.92285l82.0654 -25.5068l66.8232 -25.5059l50.4443 10.1709l56.6924 40.8418l61.1924 -85.6377l-146.594 -78.7793l-55.2373 -8.95605l-77.0381 25.5068l-61.7324 25.5059l-50.4326 -10.1709l-56.6201 -40.8418zM443 735 l150.25 -89l123.75 -632l-159 -29l-27 145h-287l-78 -144l-124 68zM463 521l-144 -259h190z"/>
   <glyph glyph-name="Adieresis" horiz-adv-x="730" unicode="Ä" d="M617.934 931l78.7422 -15.7021l32.2881 -43.4941l-14.7275 -74.1221l-46.4551 -27.8633l-78.7432 15.7031l-32.2881 43.4932l14.7275 74.1221zM376.5 931l78.7422 -15.7021l32.2881 -43.4941l-14.7275 -74.1221l-46.4551 -27.8633l-78.7432 15.7031l-32.2881 43.4932 l14.7275 74.1221zM434 720h144l142 -720h-165l-24 130h-287l-71 -130h-163zM463 521l-144 -259h190z"/>
   <glyph glyph-name="Aring" horiz-adv-x="730" unicode="Å" d="M539.71 1037.79l103.185 -43.0693l42.7275 -102.756l-42.7275 -103.189l-103.185 -42.8057l-102.791 42.8057l-43.0361 103.189l43.0684 102.756zM539.71 841.041l34.8193 14.8594l14.1582 36.1533l-14.1582 34.4453l-34.8193 14.5342l-35.8516 -14.5342 l-15.252 -34.4453l15.2842 -36.2227zM443 735l150.25 -89l123.75 -632l-159 -29l-27 145h-287l-78 -144l-124 68zM463 521l-144 -259h190z"/>
   <glyph glyph-name="AE" horiz-adv-x="1074" unicode="Æ" d="M180 0h-170l596 720h537l-28 -145h-367l-26 -135h317l-28 -145h-317l-29 -150h377l-28 -145h-537l24 125h-221zM529 270l43 220l-176 -220h133z"/>
   <glyph glyph-name="Ccedilla" horiz-adv-x="741" unicode="Ç" d="M364 -50h11l60 -23l12 -77l-43 -78l-68 -24l-53 17l-22 54l62 13l6 -20l18 -6l22 11l13 33l-1 33l-18 11l-19 -6l-13 -20l-58 13l50 103l-194 123l-27 255l148 274l285 108l209 -68l62 -193h-169l-32 90l-97 29l-150 -64l-88 -176l17 -176l123 -64l106 32l78 96l152 -45 l-143 -165l-226 -60z"/>
   <glyph glyph-name="Egrave" horiz-adv-x="667" unicode="È" d="M476 1012l75.25 -186l-99.25 -41l-96.75 147zM607 0h-537l138 720h499v-145h-367l-26 -135h316.75v-145h-344.75l-29 -150h350v-145z"/>
   <glyph glyph-name="Eacute" horiz-adv-x="667" unicode="É" d="M483 1012l120.75 -80l-96.75 -147l-99.25 41zM607 0h-537l138 720h499.5l-0.5 -145h-367l-26 -135h317l-0.5 -145h-344.5l-29 -150h350v-145z"/>
   <glyph glyph-name="Ecircumflex" horiz-adv-x="667" unicode="Ê" d="M451.25 980h137l67 -165.75l-111 -45.25l-42.25 120.75l-103.75 -138.75l-78.5 62zM607 0h-537l138 720h499v-145h-367l-26 -135h316.75v-145h-344.75l-29 -150h350v-145z"/>
   <glyph glyph-name="Edieresis" horiz-adv-x="667" unicode="Ë" d="M587.934 931l78.7422 -15.7021l32.2881 -43.4941l-14.7275 -74.1221l-46.4551 -27.8633l-78.7432 15.7031l-32.2881 43.4932l14.7275 74.1221zM346.5 931l78.7422 -15.7021l32.2881 -43.4941l-14.7275 -74.1221l-46.4551 -27.8633l-78.7432 15.7031l-32.2881 43.4932 l14.7275 74.1221zM607 0h-537l138 720h499v-145h-367l-26 -135h316.75v-145h-344.75l-29 -150h350v-145z"/>
   <glyph glyph-name="Igrave" horiz-adv-x="300" unicode="Ì" d="M306 1012l75.25 -186l-99.25 -41l-96.75 147zM227 -15l-154.25 29.5l138 720.5l154.5 -29.5z"/>
   <glyph glyph-name="Iacute" horiz-adv-x="300" unicode="Í" d="M302.75 1012l120.75 -80l-96.75 -147l-99.25 41zM227 -15l-154.25 29.5l138 720.5l154.5 -29.5z"/>
   <glyph glyph-name="Icircumflex" horiz-adv-x="300" unicode="Î" d="M271 980h137l67 -165.75l-111 -45.25l-42.25 120.75l-103.75 -138.75l-78.5 62zM227 -15l-154.25 29.5l138 720.5l154.5 -29.5z"/>
   <glyph glyph-name="Idieresis" horiz-adv-x="300" unicode="Ï" d="M397.117 931l78.7422 -15.7021l32.2881 -43.4941l-14.7275 -74.1221l-46.4551 -27.8633l-78.7432 15.7031l-32.2881 43.4932l14.7275 74.1221zM181.934 931l78.7422 -15.7021l32.2881 -43.4941l-14.7275 -74.1221l-46.4551 -27.8633l-78.7432 15.7031l-32.2881 43.4932 l14.7275 74.1221zM227 -15l-154.25 29.5l138 720.5l154.5 -29.5z"/>
   <glyph glyph-name="Eth" horiz-adv-x="784" unicode="Ð"/>
   <glyph glyph-name="Ntilde" horiz-adv-x="769" unicode="Ñ" d="M304.27 880.921l140.543 81.8145l50.2002 8.92285l82.0654 -25.5068l66.8232 -25.5059l50.4443 10.1709l56.6924 40.8418l61.1924 -85.6377l-146.594 -78.7793l-55.2373 -8.95605l-77.0381 25.5068l-61.7324 25.5059l-50.4326 -10.1709l-56.6201 -40.8418zM223.25 -14.75 l-150.5 28.75l138 720.75l167.25 -31.5l214 -444.25l91.75 475.75l150.5 -28.75l-138 -720.75l-167.5 32l-215.75 443.75z"/>
   <glyph glyph-name="Ograve" horiz-adv-x="765" unicode="Ò" d="M495.75 1012l75.25 -186l-99.25 -41l-96.75 147zM525.02 742.215l237.117 -108.268l38.2119 -274.197l-144.318 -274.266l-278.877 -108.198l-238.298 108.268l-37.0312 274.196l143.202 274.173zM404.702 120.049l144.382 63.5742l83.1592 175.872l-14.9121 176.119 l-119.69 63.498l-145.083 -63.5918l-82.458 -176.025l14.21 -175.872z"/>
   <glyph glyph-name="Oacute" horiz-adv-x="765" unicode="Ó" d="M543.25 1012l120.75 -80l-96.75 -147l-99.25 41zM525.02 742.215l237.117 -108.268l38.2119 -274.197l-144.318 -274.266l-278.877 -108.198l-238.298 108.268l-37.0312 274.196l143.202 274.173zM404.702 120.049l144.382 63.5742l83.1592 175.872l-14.9121 176.119 l-119.69 63.498l-145.083 -63.5918l-82.458 -176.025l14.21 -175.872z"/>
   <glyph glyph-name="Ocircumflex" horiz-adv-x="765" unicode="Ô" d="M501 980h137l67 -165.75l-111 -45.25l-42.25 120.75l-103.75 -138.75l-78.5 62zM525.02 742.215l237.117 -108.268l38.2119 -274.197l-144.318 -274.266l-278.877 -108.198l-238.298 108.268l-37.0312 274.196l143.202 274.173zM404.702 120.049l144.382 63.5742 l83.1592 175.872l-14.9121 176.119l-119.69 63.498l-145.083 -63.5918l-82.458 -176.025l14.21 -175.872z"/>
   <glyph glyph-name="Otilde" horiz-adv-x="765" unicode="Õ" d="M304.27 880.921l140.543 81.8145l50.2002 8.92285l82.0654 -25.5068l66.8232 -25.5059l50.4443 10.1709l56.6924 40.8418l61.1924 -85.6377l-146.594 -78.7793l-55.2373 -8.95605l-77.0381 25.5068l-61.7324 25.5059l-50.4326 -10.1709l-56.6201 -40.8418z M522.02 742.215l237.117 -108.268l38.2119 -274.197l-144.318 -274.266l-278.877 -108.198l-238.298 108.268l-37.0312 274.196l143.202 274.173zM401.702 120.049l144.382 63.5742l83.1592 175.872l-14.9121 176.119l-119.69 63.498l-145.083 -63.5918l-82.458 -176.025 l14.21 -175.872z"/>
   <glyph glyph-name="Odieresis" horiz-adv-x="765" unicode="Ö" d="M638.184 931l78.7422 -15.7021l32.2881 -43.4941l-14.7275 -74.1221l-46.4551 -27.8633l-78.7432 15.7031l-32.2881 43.4932l14.7275 74.1221zM396.75 931l78.7422 -15.7021l32.2881 -43.4941l-14.7275 -74.1221l-46.4551 -27.8633l-78.7432 15.7031l-32.2881 43.4932 l14.7275 74.1221zM522.02 742.215l237.117 -108.268l38.2119 -274.197l-144.318 -274.266l-278.877 -108.198l-238.298 108.268l-37.0312 274.196l143.202 274.173zM401.702 120.049l144.382 63.5742l83.1592 175.872l-14.9121 176.119l-119.69 63.498l-145.083 -63.5918 l-82.458 -176.025l14.21 -175.872z"/>
   <glyph glyph-name="multiply" horiz-adv-x="556" unicode="×" d="M335 294l-146 -122l-72 88l146 122l-98 123l106 88l98 -122l146 122l72 -88l-147 -123l99 -122l-106 -88z"/>
   <glyph glyph-name="Oslash" horiz-adv-x="765" unicode="Ø" d="M781.382 599.656l27.6562 -109.042l-8.18164 -130.405l-144.392 -274.266l-278.89 -108.198l-103.747 13.4111l-80.8525 38.5449l-46.9756 -45.7012l-82.7344 82.7354l56.0732 54.877l-26.6143 108.693l9.35352 129.988l143.148 274.267l280.132 108.198 l101.897 -13.3438l79.6416 -38.6045l47.1191 45.416l82.7334 -82.7266zM263.377 260.227l322.266 312.052l-39.209 20.1572l-48.457 7.22852l-145.072 -63.5908l-82.3838 -176.025l-7.39941 -53.002l0.254883 -46.8193h0.000976562zM638.719 461.001l-323.473 -313.107 l39.6455 -20.6328l50.2314 -6.88867l144.339 63.6504l83.1172 175.958l6.82129 53.6309l-0.680664 47.3896h-0.000976562z"/>
   <glyph glyph-name="Ugrave" horiz-adv-x="753" unicode="Ù" d="M505.75 1012l75.25 -186l-99.25 -41l-96.75 147zM666.75 735l154 -30l-77.1738 -404.141l-123.562 -236.301l-248.427 -87.0645l-214.064 87.0645l-32.5039 236.301l83.2305 433.141l154 -29l-75.3525 -388.832l10.7354 -148.121l102.439 -42.5166l118.012 42.5166 l67.6953 148.121z"/>
   <glyph glyph-name="Uacute" horiz-adv-x="753" unicode="Ú" d="M506.5 1012l120.75 -80l-96.75 -147l-99.25 41zM664 735l154 -30l-77.1738 -404.141l-123.562 -236.301l-248.427 -87.0645l-214.064 87.0645l-32.5039 236.301l83.2305 433.141l154 -29l-75.3525 -388.832l10.7354 -148.121l102.439 -42.5166l118.012 42.5166 l67.6953 148.121z"/>
   <glyph glyph-name="Ucircumflex" horiz-adv-x="753" unicode="Û" d="M491 980h137l67 -165.75l-111 -45.25l-42.25 120.75l-103.75 -138.75l-78.5 62zM666.5 735l154 -30l-77.1738 -404.141l-123.562 -236.301l-248.427 -87.0645l-214.064 87.0645l-32.5039 236.301l83.2305 433.141l154 -29l-75.3525 -388.832l10.7354 -148.121 l102.439 -42.5166l118.012 42.5166l67.6953 148.121z"/>
   <glyph glyph-name="Udieresis" horiz-adv-x="753" unicode="Ü" d="M627.684 931l78.7422 -15.7021l32.2881 -43.4941l-14.7275 -74.1221l-46.4551 -27.8633l-78.7432 15.7031l-32.2881 43.4932l14.7275 74.1221zM386.25 931l78.7422 -15.7021l32.2881 -43.4941l-14.7275 -74.1221l-46.4551 -27.8633l-78.7432 15.7031l-32.2881 43.4932 l14.7275 74.1221zM666.5 735l154 -30l-77.1738 -404.141l-123.562 -236.301l-248.427 -87.0645l-214.064 87.0645l-32.5039 236.301l83.2305 433.141l154 -29l-75.3525 -388.832l10.7354 -148.121l102.439 -42.5166l118.012 42.5166l67.6953 148.121z"/>
   <glyph glyph-name="Yacute" horiz-adv-x="705" unicode="Ý"/>
   <glyph glyph-name="Thorn" horiz-adv-x="672" unicode="Þ"/>
   <glyph glyph-name="germandbls" horiz-adv-x="693" unicode="ß" d="M455.991 167.16l7.26367 -53.5557l44.6924 -19.0596l41.6758 14.2969l22.6084 38.8418l-6.27734 30.3037l-25.3506 16.7197l-61.2207 17.0957l-79.6846 52.6621l-19.291 104.644l98.1035 134.062l83.4355 57.5947l-8.72656 29.249l-73.8369 17.7666l-87.709 -27.8457 l-50.9766 -84.2236l-98.6973 -510.712l-141.5 28.25l88.75 460.75l110.06 197.245l194.358 67.0605l176.915 -48.0957l36.1699 -119.332l-102.557 -119.128l-94.2021 -78.6445l4.71875 -24.7148l25.8916 -17.1201l57.0557 -15.3086l82.3838 -46.4707l25.6895 -117.64 l-76.8672 -131.316l-146.507 -43.2461l-127.205 47.8311l-30.7803 120.522z"/>
   <glyph glyph-name="agrave" horiz-adv-x="551" unicode="à" d="M343.368 868l110 -273l-91.5 -37.25l-147.5 224.25zM67.541 17.6221l-30.292 111.609l79.0566 123.329l161.578 49.0303l118.363 24.4004l3.06152 12.333l-8.34277 51.7861l-60.957 25.7607l-69.1924 -24.7754l-37.9453 -53.793l-98.4111 68.8154l88.793 99.9805 l148.388 34.1738l155.882 -51.0977l26.7383 -174.231l-62.2607 -329.943l-138.515 26.2783l5.90527 38.6191l-78.7812 -55.2051l-86.4326 -15.2842zM378.985 234.335l-98.9746 -26.5361l-60.3818 -21.9082l-28.3047 -46.5381l7.39941 -31.6807l42.5996 -14.1523 l70.9678 21.2793l53.4316 47.9326z"/>
   <glyph glyph-name="aacute" horiz-adv-x="551" unicode="á" d="M403.618 868l129 -86l-147.5 -224.25l-91.5 37.25zM67.541 17.6221l-30.292 111.609l79.0566 123.329l161.578 49.0303l118.363 24.4004l3.06152 12.333l-8.34277 51.7861l-60.957 25.7607l-69.1924 -24.7754l-37.9453 -53.793l-98.4111 68.8154l88.793 99.9805 l148.388 34.1738l155.882 -51.0977l26.7383 -174.231l-62.2607 -329.943l-138.515 26.2783l5.90527 38.6191l-78.7812 -55.2051l-86.4326 -15.2842zM378.985 234.335l-98.9746 -26.5361l-60.3818 -21.9082l-28.3047 -46.5381l7.39941 -31.6807l42.5996 -14.1523 l70.9678 21.2793l53.4316 47.9326z"/>
   <glyph glyph-name="acircumflex" horiz-adv-x="551" unicode="â" d="M370.464 845h137l101 -249l-114.75 -47.25l-72.5 206l-167 -223.25l-80.75 63.5zM67.541 17.6221l-30.292 111.609l79.0566 123.329l161.578 49.0303l118.363 24.4004l3.06152 12.333l-8.34277 51.7861l-60.957 25.7607l-69.1924 -24.7754l-37.9453 -53.793 l-98.4111 68.8154l88.793 99.9805l148.388 34.1738l155.882 -51.0977l26.7383 -174.231l-62.2607 -329.943l-138.515 26.2783l5.90527 38.6191l-78.7812 -55.2051l-86.4326 -15.2842zM378.985 234.335l-98.9746 -26.5361l-60.3818 -21.9082l-28.3047 -46.5381 l7.39941 -31.6807l42.5996 -14.1523l70.9678 21.2793l53.4316 47.9326z"/>
   <glyph glyph-name="atilde" horiz-adv-x="551" unicode="ã" d="M158.693 676.136l140.543 81.8145l50.2002 8.92285l82.0654 -25.5068l66.8232 -25.5059l50.4443 10.1709l56.6924 40.8418l61.1924 -85.6377l-146.594 -78.7793l-55.2373 -8.95605l-77.0381 25.5068l-61.7324 25.5059l-50.4326 -10.1709l-56.6201 -40.8418z M67.541 17.6221l-30.292 111.609l79.0566 123.329l161.578 49.0303l118.363 24.4004l3.06152 12.333l-8.34277 51.7861l-60.957 25.7607l-69.1924 -24.7754l-37.9453 -53.793l-98.4111 68.8154l88.793 99.9805l148.388 34.1738l155.882 -51.0977l26.7383 -174.231 l-62.2607 -329.943l-138.515 26.2783l5.90527 38.6191l-78.7812 -55.2051l-86.4326 -15.2842zM378.985 234.335l-98.9746 -26.5361l-60.3818 -21.9082l-28.3047 -46.5381l7.39941 -31.6807l42.5996 -14.1523l70.9678 21.2793l53.4316 47.9326z"/>
   <glyph glyph-name="adieresis" horiz-adv-x="551" unicode="ä" d="M476.367 730.735l78.7422 -15.7021l32.2881 -43.4941l-14.7275 -74.1221l-46.4551 -27.8633l-78.7432 15.7031l-32.2881 43.4932l14.7275 74.1221zM259.684 730.735l78.7422 -15.7021l32.2881 -43.4941l-14.7275 -74.1221l-46.4551 -27.8633l-78.7432 15.7031 l-32.2881 43.4932l14.7275 74.1221zM67.541 17.6221l-30.292 111.609l79.0566 123.329l161.578 49.0303l118.363 24.4004l3.06152 12.333l-8.34277 51.7861l-60.957 25.7607l-69.1924 -24.7754l-37.9453 -53.793l-98.4111 68.8154l88.793 99.9805l148.388 34.1738 l155.882 -51.0977l26.7383 -174.231l-62.2607 -329.943l-138.515 26.2783l5.90527 38.6191l-78.7812 -55.2051l-86.4326 -15.2842zM378.985 234.335l-98.9746 -26.5361l-60.3818 -21.9082l-28.3047 -46.5381l7.39941 -31.6807l42.5996 -14.1523l70.9678 21.2793 l53.4316 47.9326z"/>
   <glyph glyph-name="aring" horiz-adv-x="551" unicode="å" d="M410.638 868.077l103.185 -43.0693l42.7275 -102.756l-42.7275 -103.189l-103.185 -42.8057l-102.791 42.8057l-43.0361 103.189l43.0684 102.756zM410.638 671.324l34.8193 14.8594l14.1582 36.1533l-14.1582 34.4453l-34.8193 14.5342l-35.8516 -14.5342 l-15.252 -34.4453l15.2842 -36.2227zM67.541 17.6221l-30.292 111.609l79.0566 123.329l161.578 49.0303l118.363 24.4004l3.06152 12.333l-8.34277 51.7861l-60.957 25.7607l-69.1924 -24.7754l-37.9453 -53.793l-98.4111 68.8154l88.793 99.9805l148.388 34.1738 l155.882 -51.0977l26.7383 -174.231l-62.2607 -329.943l-138.515 26.2783l5.90527 38.6191l-78.7812 -55.2051l-86.4326 -15.2842zM378.985 234.335l-98.9746 -26.5361l-60.3818 -21.9082l-28.3047 -46.5381l7.39941 -31.6807l42.5996 -14.1523l70.9678 21.2793 l53.4316 47.9326z"/>
   <glyph glyph-name="ae" horiz-adv-x="882" unicode="æ" d="M510.458 -6.49219l-71.9883 44.8545l-118.191 -48.2988l-105.183 -10.793l-131.584 41.291l-36.6914 108.701l76.4746 123.908l166.202 48.2734l118.361 24.4082l1.95605 12.417l-7.40723 51.6338l-61.042 25.7441l-69.6289 -24.7744l-38.4443 -53.7939l-97.0947 69.8076 l87.3594 98.9893l148.42 34.1729l92.3965 -12.9531l65.6758 -41.9717l86.6348 41.5889l92.6924 13.3359l148.644 -39.8203l61.4668 -132.361l-69.959 -119.562l-159.368 -32.3867h-153.054l19.9834 -82.0723l78.9072 -27.0283l63.4854 17.9971l40.5908 43.3145 l88.4492 -81.7783l-63.5137 -66.9385l-163.364 -40.1348zM385.282 164.881l3.1543 68.3711l-97.8701 -25.5908l-63.3467 -21.917l-27.3789 -46.5303l11.6377 -31.6904l50.6035 -14.1436l68.832 9.44141l59.6484 26.2705v0zM559.894 319.9h112.069l65.1436 8.24902 l24.6484 39.582l-25.7227 33.8496l-54.8008 10.9629l-73.3281 -24.5293z"/>
   <glyph glyph-name="ccedilla" horiz-adv-x="540" unicode="ç" d="M242.904 -39.0518h9.10059l49.0303 -19.5859l10.0654 -63.9141l-35.2656 -64.417l-56.5654 -20.0967l-43.9717 13.2939l-17.333 43.2852l51.1846 12.8896l4.20996 -16.6113l14.1572 -5.01758l19.1963 9.58496l11.415 27.3174l-1.4209 27.0127l-15.0811 9.43164 l-15.9434 -4.93359l-10.5859 -16.5166l-47.957 10.377l40.8145 83.5l-125.208 81.5117l-19.5986 193.809l116.32 213.608l190.555 66.7383l160.122 -50.9014l32.25 -163.93l-150.623 -12.5381l-5.9707 71.4316l-60.1797 28.5684l-81.6504 -39.4365l-47.8516 -113.541 l3.4707 -113.6l66.8535 -39.3691l65.1445 20.4971l46.0771 67.1719l105.824 -72.9297l-78.3174 -98.5713l-163.046 -43.707h-9.01562z"/>
   <glyph glyph-name="egrave" horiz-adv-x="556" unicode="è" d="M340.404 868l110 -273l-91.5 -37.25l-147.5 224.25zM272.002 -20.5557l-169.912 66.7383l-39.1777 213.608l121.839 213.694l195.24 66.8232l148.611 -39.8877l61.498 -132.303l-69.9697 -119.562l-159.442 -32.3867h-152.969l19.9814 -82.0635l78.9092 -27.0283 l63.4541 17.9707l40.6221 43.1631l87.6836 -81.6094l-63.0029 -67.0146zM230.082 320.074h139.79l46.0332 12.834l16.124 34.9551l-25.7539 33.8496l-54.7695 10.9629l-73.3389 -24.4863z"/>
   <glyph glyph-name="eacute" horiz-adv-x="556" unicode="é" d="M436.404 868l129 -86l-147.5 -224.25l-91.5 37.25zM272.002 -20.5557l-169.912 66.7383l-39.1777 213.608l121.839 213.694l195.24 66.8232l148.611 -39.8877l61.498 -132.303l-69.9697 -119.562l-159.442 -32.3867h-152.969l19.9814 -82.0635l78.9092 -27.0283 l63.4541 17.9707l40.6221 43.1631l87.6836 -81.6094l-63.0029 -67.0146zM230.082 320.074h139.79l46.0332 12.834l16.124 34.9551l-25.7539 33.8496l-54.7695 10.9629l-73.3389 -24.4863z"/>
   <glyph glyph-name="ecircumflex" horiz-adv-x="556" unicode="ê" d="M370.25 845h137l101 -249l-114.75 -47.25l-72.5 206l-167 -223.25l-80.75 63.5zM272.002 -20.5557l-169.912 66.7383l-39.1777 213.608l121.839 213.694l195.24 66.8232l148.611 -39.8877l61.498 -132.303l-69.9697 -119.562l-159.442 -32.3867h-152.969 l19.9814 -82.0635l78.9092 -27.0283l63.4541 17.9707l40.6221 43.1631l87.6836 -81.6094l-63.0029 -67.0146zM230.082 320.074h139.79l46.0332 12.834l16.124 34.9551l-25.7539 33.8496l-54.7695 10.9629l-73.3389 -24.4863z"/>
   <glyph glyph-name="edieresis" horiz-adv-x="556" unicode="ë" d="M490.617 730.735l78.7422 -15.7021l32.2881 -43.4941l-14.7275 -74.1221l-46.4551 -27.8633l-78.7432 15.7031l-32.2881 43.4932l14.7275 74.1221zM264.934 730.735l78.7422 -15.7021l32.2881 -43.4941l-14.7275 -74.1221l-46.4551 -27.8633l-78.7432 15.7031 l-32.2881 43.4932l14.7275 74.1221zM272.002 -20.5557l-169.912 66.7383l-39.1777 213.608l121.839 213.694l195.24 66.8232l148.611 -39.8877l61.498 -132.303l-69.9697 -119.562l-159.442 -32.3867h-152.969l19.9814 -82.0635l78.9092 -27.0283l63.4541 17.9707 l40.6221 43.1631l87.6836 -81.6094l-63.0029 -67.0146zM230.082 320.074h139.79l46.0332 12.834l16.124 34.9551l-25.7539 33.8496l-54.7695 10.9629l-73.3389 -24.4863z"/>
   <glyph glyph-name="igrave" horiz-adv-x="258" unicode="ì" d="M197 -15l-145 26l100 524l144 -30zM223.404 868l110 -273l-91.5 -37.25l-147.5 224.25z"/>
   <glyph glyph-name="iacute" horiz-adv-x="258" unicode="í" d="M291.405 868l129 -86l-147.5 -224.25l-91.5 37.25zM197 -15l-145 26l100 524l144 -30z"/>
   <glyph glyph-name="icircumflex" horiz-adv-x="258" unicode="î" d="M197 -15l-145 26l100 524l144 -30zM216.75 845h137l101 -249l-114.75 -47.25l-72.5 206l-167 -223.25l-80.75 63.5z"/>
   <glyph glyph-name="idieresis" horiz-adv-x="258" unicode="ï" d="M324.617 730.735l78.7422 -15.7021l32.2881 -43.4941l-14.7275 -74.1221l-46.4551 -27.8633l-78.7432 15.7031l-32.2881 43.4932l14.7275 74.1221zM124.434 730.735l78.7422 -15.7021l32.2881 -43.4941l-14.7275 -74.1221l-46.4551 -27.8633l-78.7432 15.7031 l-32.2881 43.4932l14.7275 74.1221zM197 -15l-145 26l100 524l144 -30z"/>
   <glyph glyph-name="eth" horiz-adv-x="561" unicode="ð"/>
   <glyph glyph-name="ntilde" horiz-adv-x="584" unicode="ñ" d="M168.693 676.136l140.543 81.8145l50.2002 8.92285l82.0654 -25.5068l66.8232 -25.5059l50.4443 10.1709l56.6924 40.8418l61.1924 -85.6377l-146.594 -78.7793l-55.2373 -8.95605l-77.0381 25.5068l-61.7324 25.5059l-50.4326 -10.1709l-56.6201 -40.8418zM50.75 13 l99.5 522l135.625 -26.0186l-11.0752 -60.4609l78.0059 70.4717l87.123 21.3643l139.397 -62.7324l8.47168 -157.003l-64.0479 -335.621l-144.554 28.3164l57.7568 302.646l-4.86523 70.8369l-58.3086 24.9873l-74.54 -32.1221l-47.8184 -96.2754l-56.1709 -298.39 l-144.5 27.8301v0.169922z"/>
   <glyph glyph-name="ograve" horiz-adv-x="572" unicode="ò" d="M352.654 868l110 -273l-91.5 -37.25l-147.5 224.25zM380.265 540.365l171.751 -66.8232l37.2529 -213.694l-119.509 -213.608l-197.568 -66.7383l-171.856 66.7383l-37.2324 213.608l119.521 213.694zM296.596 106.88l89.4092 39.4365l50.3809 113.531l-6.96582 113.601 l-73.4775 39.3691l-89.3867 -39.3691l-50.4873 -113.601l7.00879 -113.531z"/>
   <glyph glyph-name="oacute" horiz-adv-x="572" unicode="ó" d="M451.154 868l129 -86l-147.5 -224.25l-91.5 37.25zM380.265 540.365l171.751 -66.8232l37.2529 -213.694l-119.509 -213.608l-197.568 -66.7383l-171.856 66.7383l-37.2324 213.608l119.521 213.694zM296.596 106.88l89.4092 39.4365l50.3809 113.531l-6.96582 113.601 l-73.4775 39.3691l-89.3867 -39.3691l-50.4873 -113.601l7.00879 -113.531z"/>
   <glyph glyph-name="ocircumflex" horiz-adv-x="572" unicode="ô" d="M370.25 845h137l101 -249l-114.75 -47.25l-72.5 206l-167 -223.25l-80.75 63.5zM380.265 540.365l171.751 -66.8232l37.2529 -213.694l-119.509 -213.608l-197.568 -66.7383l-171.856 66.7383l-37.2324 213.608l119.521 213.694zM296.596 106.88l89.4092 39.4365 l50.3809 113.531l-6.96582 113.601l-73.4775 39.3691l-89.3867 -39.3691l-50.4873 -113.601l7.00879 -113.531z"/>
   <glyph glyph-name="otilde" horiz-adv-x="572" unicode="õ" d="M149.193 676.136l140.543 81.8145l50.2002 8.92285l82.0654 -25.5068l66.8232 -25.5059l50.4443 10.1709l56.6924 40.8418l61.1924 -85.6377l-146.594 -78.7793l-55.2373 -8.95605l-77.0381 25.5068l-61.7324 25.5059l-50.4326 -10.1709l-56.6201 -40.8418z M380.265 540.365l171.751 -66.8232l37.2529 -213.694l-119.509 -213.608l-197.568 -66.7383l-171.856 66.7383l-37.2324 213.608l119.521 213.694zM296.596 106.88l89.4092 39.4365l50.3809 113.531l-6.96582 113.601l-73.4775 39.3691l-89.3867 -39.3691l-50.4873 -113.601 l7.00879 -113.531z"/>
   <glyph glyph-name="odieresis" horiz-adv-x="572" unicode="ö" d="M485.867 730.735l78.7422 -15.7021l32.2881 -43.4941l-14.7275 -74.1221l-46.4551 -27.8633l-78.7432 15.7031l-32.2881 43.4932l14.7275 74.1221zM269.434 730.735l78.7422 -15.7021l32.2881 -43.4941l-14.7275 -74.1221l-46.4551 -27.8633l-78.7432 15.7031 l-32.2881 43.4932l14.7275 74.1221zM380.265 540.365l171.751 -66.8232l37.2529 -213.694l-119.509 -213.608l-197.568 -66.7383l-171.856 66.7383l-37.2324 213.608l119.521 213.694zM296.596 106.88l89.4092 39.4365l50.3809 113.531l-6.96582 113.601l-73.4775 39.3691 l-89.3867 -39.3691l-50.4873 -113.601l7.00879 -113.531z"/>
   <glyph glyph-name="divide" horiz-adv-x="558" unicode="÷" d="M358.5 627.5l78.7422 -15.7021l32.2881 -43.4941l-14.7275 -74.1221l-46.4551 -27.8633l-78.7432 15.7031l-32.2881 43.4932l14.7275 74.1221zM286.22 257.696l78.7422 -15.7021l32.2881 -43.4941l-14.7275 -74.1221l-46.4551 -27.8633l-78.7432 15.7031 l-32.2881 43.4932l14.7275 74.1221zM588 300h-480v125h480v-125z"/>
   <glyph glyph-name="oslash" horiz-adv-x="572" unicode="ø" d="M576 439l19.7812 -78.8457l-6.80371 -100.289l-119.478 -213.601l-197.6 -66.7373l-66.8662 6.80371l-59.0342 20.6689l-22 -22l-73 70l25 25l-19.9912 78.8184l6.80371 101.021l119.51 213.754l197.567 66.7637l66.5156 -6.97363l59.5947 -21.3828l23 23l73 -70z M211 215l188 189l-21.0449 6.5459l-22.3838 2.21191l-89.3994 -39.4375l-50.3057 -113.54l-3.7002 -23.0059zM254 116l20.0586 -7.23242l22.416 -1.87207l89.3359 39.4375l50.3682 113.532l3.2832 21.7461l2.53809 22.3887z"/>
   <glyph glyph-name="ugrave" horiz-adv-x="574" unicode="ù" d="M340.771 868l110 -273l-91.5 -37.25l-147.5 224.25zM513.75 -15l-135.627 26.0195l11.248 60.1367l-78.8643 -70.3184l-87.2842 -21.3477l-139.301 62.7324l-7.85742 157.502l64.1855 335.275l144.635 -27.8477l-57.75 -303.269l4.29395 -70.9824l57.8633 -25.0127 l74.5293 32.1396l47.7441 96.4287l56.9346 298.793l144.783 -27.584z"/>
   <glyph glyph-name="uacute" horiz-adv-x="574" unicode="ú" d="M441.521 868.25l129 -86l-147.5 -224.25l-91.5 37.25zM513.75 -15l-135.627 26.0195l11.248 60.1367l-78.8643 -70.3184l-87.2842 -21.3477l-139.301 62.7324l-7.85742 157.502l64.1855 335.275l144.635 -27.8477l-57.75 -303.269l4.29395 -70.9824l57.8633 -25.0127 l74.5293 32.1396l47.7441 96.4287l56.9346 298.793l144.783 -27.584z"/>
   <glyph glyph-name="ucircumflex" horiz-adv-x="574" unicode="û" d="M370.615 845h137l101 -249l-114.75 -47.25l-72.5 206l-167 -223.25l-80.75 63.5zM513.75 -15l-135.627 26.0195l11.248 60.1367l-78.8643 -70.3184l-87.2842 -21.3477l-139.301 62.7324l-7.85742 157.502l64.1855 335.275l144.635 -27.8477l-57.75 -303.269 l4.29395 -70.9824l57.8633 -25.0127l74.5293 32.1396l47.7441 96.4287l56.9346 298.793l144.783 -27.584z"/>
   <glyph glyph-name="udieresis" horiz-adv-x="574" unicode="ü" d="M485.867 730.735l78.7422 -15.7021l32.2881 -43.4941l-14.7275 -74.1221l-46.4551 -27.8633l-78.7432 15.7031l-32.2881 43.4932l14.7275 74.1221zM269.434 730.735l78.7422 -15.7021l32.2881 -43.4941l-14.7275 -74.1221l-46.4551 -27.8633l-78.7432 15.7031 l-32.2881 43.4932l14.7275 74.1221zM513.75 -15l-135.627 26.0195l11.248 60.1367l-78.8643 -70.3184l-87.2842 -21.3477l-139.301 62.7324l-7.85742 157.502l64.1855 335.275l144.635 -27.8477l-57.75 -303.269l4.29395 -70.9824l57.8633 -25.0127l74.5293 32.1396 l47.7441 96.4287l56.9346 298.793l144.783 -27.584z"/>
   <glyph glyph-name="yacute" horiz-adv-x="556" unicode="ý"/>
   <glyph glyph-name="thorn" horiz-adv-x="577" unicode="þ"/>
   <glyph glyph-name="ydieresis" horiz-adv-x="572" unicode="ÿ"/>
   <glyph glyph-name="lcaron" horiz-adv-x="421" unicode="ľ" d="M390.249 678.12l53.458 44.7861h64.4561l36.1152 -44.7949l-6.1582 -31.7402l-14.8252 -76.4336l-48.7334 -103.359l-70.7881 -48.8213l-36.5088 56.3564l50.5605 32.9902l29.9629 62.834h-33.6875l-36.127 44.8213zM203.5 -15l-144.75 27.75l138.25 722.25l145 -27.75z "/>
   <glyph glyph-name="OE" horiz-adv-x="1011" unicode="Œ" d="M137.567 96.6299l-34.71 265.361l143.113 265.878l298.291 91.9941h535.94l-0.202148 -144.883h-364.761l-26.0098 -134.961h286.698l0.0722656 -144.884h-314.78l-29.0938 -150.136l319.385 -0.108398l-0.510742 -144.892l-556.708 0.108398v-0.0419922z M555.183 574.896h-22.0078l-160.756 -37.0039l-99.1699 -174.984l23.4561 -172.141l149.438 -46.8516h25.0088z"/>
   <glyph glyph-name="oe" horiz-adv-x="923" unicode="œ" d="M376.319 540.291l99.4434 -17.2822l74.9541 -53.1221l95.7861 53.1221l104.205 17.2822l148.61 -39.9053l61.499 -132.446l-70.0107 -119.562l-159.486 -32.3877h-152.969l20.0244 -82.0625l78.9502 -27.0371l63.4434 17.9961l40.5488 43.3154l88.4854 -81.8555 l-63.7412 -66.6318l-163.428 -40.1943l-98.1367 16.6865l-75.2402 52.5273l-94.7129 -52.5273l-106.129 -16.6865l-171.792 66.7383l-37.2969 213.601l119.437 213.651zM292.565 106.806l89.377 39.4365l50.4121 113.531l-7.00488 113.693l-73.5186 39.4541 l-89.4092 -39.4541l-50.3809 -113.693l6.94043 -113.531zM600.545 320.065h139.874l45.9902 12.8936l16.082 34.8945l-25.7217 33.8496l-54.8018 10.9629l-73.3389 -24.5195z"/>
   <glyph glyph-name="tcaron" horiz-adv-x="521" unicode="ť" d="M245.874 -14.8867l-108.496 42.7832l-13.9629 124.193l48.9336 248.918h-73.9424l-0.15918 119.043h96.2764l29.7266 159.949l145.5 -27.75l-25.4238 -132.199h77.1738l-0.3125 -119.043h-98.9521l-39.9307 -203.984l-4.97852 -55.2812l36.9092 -21.5791l42.0146 5.83691 l17.5 -116zM489.456 678.122l53.458 44.7861h64.4561l36.1152 -44.7949l-6.1582 -31.7402l-14.8252 -76.4336l-48.7334 -103.359l-70.7881 -48.8213l-36.5088 56.3564l50.5605 32.9902l29.9629 62.834h-33.6875l-36.127 44.8213z"/>
   <glyph glyph-name="Ydieresis" horiz-adv-x="705" unicode="Ÿ"/>
   <glyph glyph-name="endash" horiz-adv-x="556" unicode="–" d="M564 200h-496l0.25 125h496z"/>
   <glyph glyph-name="emdash" horiz-adv-x="710" unicode="—" d="M738 200h-674.5l-0.25 125h674.5z"/>
   <glyph glyph-name="quoteleft" horiz-adv-x="251" unicode="‘" d="M293.751 469.795l-53.458 -44.7861h-64.4561l-36.1152 44.7949l20.9834 108.174l48.7334 103.359l70.7881 48.8213l36.5088 -56.3564l-50.5605 -32.9902l-29.9629 -62.834h33.6875l36.127 -44.8213z"/>
   <glyph glyph-name="quoteright" horiz-adv-x="251" unicode="’" d="M88.249 678.122l53.458 44.7861h64.4561l36.1152 -44.7949l-20.9834 -108.174l-48.7334 -103.359l-70.7881 -48.8213l-36.5088 56.3564l50.5605 32.9902l29.9629 62.834h-33.6875l-36.127 44.8213z"/>
   <glyph glyph-name="quotesinglbase" horiz-adv-x="251" unicode="‚" d="M69.249 108.12l53.458 44.7861h64.4561l36.1152 -44.7949c-6.99609 -36.0566 -13.9893 -72.1152 -20.9834 -108.174l-48.7334 -103.359l-70.7881 -48.8213l-36.5088 56.3564l50.5605 32.9902l29.9629 62.834h-33.6875l-36.127 44.8213z"/>
   <glyph glyph-name="quotedblleft" horiz-adv-x="451" unicode="“" d="M494.032 469.795l-53.457 -44.7861h-64.4561l-36.1162 44.7949l20.9844 108.174l48.7324 103.359l70.7891 48.8213l36.5088 -56.3564l-50.5615 -32.9902l-29.9619 -62.834h33.6865l36.1279 -44.8213zM293.751 469.795l-53.458 -44.7861h-64.4561l-36.1152 44.7949 l20.9834 108.174l48.7334 103.359l70.7881 48.8213l34.5254 -54.4316l-48.5771 -34.915l-29.9629 -62.834h33.6875l36.127 -44.8213z"/>
   <glyph glyph-name="quotedblright" horiz-adv-x="451" unicode="”" d="M180.672 676.622l53.458 44.7861h64.4561l36.1152 -44.7949l-6.1582 -31.7402l-14.8252 -76.4336l-48.7334 -103.359l-70.7881 -48.8213l-36.5088 56.3564l50.5605 32.9902l29.9629 62.834h-33.6875l-36.127 44.8213zM380.706 676.622l53.458 44.7861h64.4561 l36.1152 -44.7949l-6.1582 -31.7402l-14.8252 -76.4336l-48.7334 -103.359l-70.7881 -48.8213l-36.5088 56.3564l50.5605 32.9902l29.9629 62.834h-33.6875l-36.127 44.8213z"/>
   <glyph glyph-name="quotedblbase" horiz-adv-x="451" unicode="„" d="M69.2061 108.122l53.458 44.7861h64.4561l36.1152 -44.7949l-6.1582 -31.7402l-14.8252 -76.4336l-48.7334 -103.359l-70.7881 -48.8213l-36.5088 56.3564l50.5605 32.9902l29.9629 62.834h-33.6875l-36.127 44.8213zM269.24 108.122l53.458 44.7861h64.4561 l36.1152 -44.7949l-6.1582 -31.7402l-14.8252 -76.4336l-48.7334 -103.359l-70.7881 -48.8213l-36.5088 56.3564l50.5605 32.9902l29.9629 62.834h-33.6875l-36.127 44.8213z"/>
   <glyph glyph-name="dagger" horiz-adv-x="404" unicode="†" d="M124 485l0.5 125h120.5l24 125l144.5 -27.5l-18.5 -97.5h97.5l-0.5 -125h-121l-46 -235l-144.5 27.5l40.5 207.5h-97z"/>
   <glyph glyph-name="daggerdbl" horiz-adv-x="384" unicode="‡" d="M442 455l0.25 -125h-111.25l-18.5 -95l-145 27.75l13.5 67.25h-87l-0.25 125h111.25l12 60h-87l-0.25 125h111.25l17.75 95l145 -27.25l-12.75 -67.75h87l0.25 -125h-111.25l-12 -60h87z"/>
   <glyph glyph-name="bullet" horiz-adv-x="388" unicode="•" d="M207.265 477.288l115.638 -24.5996l47.417 -68.1396l-21.6289 -116.124l-68.2227 -43.6504l-115.639 24.6006l-47.417 68.1387l21.6289 116.124z"/>
   <glyph glyph-name="ellipsis" horiz-adv-x="672" unicode="…" d="M535.184 155.619l78.7422 -15.7021l32.2881 -43.4941l-14.7275 -74.1221l-46.4551 -27.8633l-78.7432 15.7031l-32.2881 43.4932l14.7275 74.1221zM325.117 155.619l78.7422 -15.7021l32.2881 -43.4941l-14.7275 -74.1221l-46.4551 -27.8633l-78.7432 15.7031 l-32.2881 43.4932l14.7275 74.1221zM114.617 155.619l78.7422 -15.7021l32.2881 -43.4941l-14.7275 -74.1221l-46.4551 -27.8633l-78.7432 15.7031l-32.2881 43.4932l14.7275 74.1221z"/>
   <glyph glyph-name="perthousand" horiz-adv-x="1182" unicode="‰" d="M1059.59 328.338l103.854 -44.6943l22.6709 -123.584l-70.6904 -123.627l-121.137 -44.7363l-103.77 44.7695l-22.5859 123.594l70.6699 123.551zM1014.78 98.8418l36.085 13.752l26.0713 47.5518l-7.88379 47.3027l-30.9727 13.8291l-35.9248 -13.7266 l-25.2129 -47.4053l7.11816 -47.4922zM326.62 728.225l103.737 -44.6934l22.6172 -123.576l-70.6152 -123.49l-121.126 -44.7881l-103.737 44.7617l-22.6182 123.517l70.6172 123.517zM276.25 -14.75l-91 66l498.5 683.75l91.5 -66.5zM282.744 498.898l35.8936 13.668 l25.2441 47.4736l-7.06836 47.3643l-30.5996 13.7686l-35.9785 -13.667l-26.0947 -47.4658l7.75684 -47.4062zM699.417 327.898l103.854 -44.6934l22.6709 -123.584l-70.6904 -123.628l-120.495 -40.9961l-104.411 41.0303l-22.5859 123.594l70.6699 123.55z M654.606 98.4033l36.085 13.752l26.0713 47.5508l-7.88379 47.3037l-30.9727 13.8291l-35.9248 -13.7266l-25.2129 -47.4062l7.11816 -47.4912z"/>
   <glyph glyph-name="guilsinglleft" horiz-adv-x="341" unicode="‹" d="M71 263l248 251l85 -82l-166 -169l101 -169l-122.5 -72z"/>
   <glyph glyph-name="guilsinglright" horiz-adv-x="341" unicode="›" d="M372 263l-248 -251l-85 82l166 169l-101 169l122.5 72z"/>
   <glyph glyph-name="Euro" d="M316.005 394.947l-12.2441 -64.9863h112.16l-0.0888672 -74.6064h-124.485l10.2676 -105.593l59.1172 -31.3408l64.0283 26.3916l47.957 83.7217l119.708 -68.4561l-77.4912 -122.665l-180.901 -59.6367l-163.407 76.0928l-36.499 201.485h-81.5439l0.00488281 74.6064 h91.7422l12.2441 64.9863h-76.4424l0.0908203 75.1162h96.9287l114.229 197.654l190.69 74.7412l158.55 -60.3594l40.291 -165.787l-157.007 -27.8438l-15.124 85.9424l-53.3252 27.1475l-71.6475 -34.1045l-48.7549 -97.3906h108.164l-0.0898438 -75.1162h-127.121z" unicode="€"/>
   <glyph glyph-name="afii61352" horiz-adv-x="1104" unicode="№" d="M790 145l0.00683594 105.035h331.917l0.0761719 -105.035h-332zM1039.62 628.134l103.811 -44.7529l22.6289 -123.517l-70.7139 -123.524l-121.029 -44.7539l-103.748 44.6943l-22.6914 123.584l70.6807 123.482zM994.807 398.723l36.043 13.668l26.0293 47.4736 l-7.34375 47.3721l-30.2393 13.7617l-36.5742 -13.668l-25.668 -47.4658l7.01562 -47.3721zM223.25 -14.75l-150.5 28.75l138 720.75l167.25 -31.5l214 -444.25l91.75 475.75l150.5 -28.75l-138 -720.75l-167.5 32l-215.75 443.75z"/>
   <glyph glyph-name="trademark" horiz-adv-x="732" unicode="™" d="M395.732 441l36.3926 184.895h-87.0312l-39.7637 -202.895l-94.5801 18l36.2256 184.895h-95.8672l0.0898438 94.1211h434.898l26.0088 -178.895l105.145 194.129l114.75 -61.75l-48.75 -250.5l-94.6631 18l29.3896 149.883l-90.9473 -167.883l-84.7793 46 l-19.2598 121.883l-32.7607 -167.883z"/>
   <glyph glyph-name=".grave" d="M4225 260c0 -142 69 -200 148 -200c61 0 110 35 129 117l87 -19c-28 -110 -104 -173 -216 -173c-144 0 -238 103 -238 275s94 275 238 275c112 0 188 -64 216 -173l-87 -20c-19 83 -68 118 -129 118c-69 0 -148 -58 -148 -200zM4511 260c0 31 -3 59 -9 82l-55 -12v-140 l55 -13c6 24 9 51 9 83zM4625 150v220l-36 -8c7 -31 12 -65 12 -102c0 -38 -5 -72 -12 -102z" horiz-adv-x="500"/>
   <glyph glyph-name="percent" d="M326.801 728.22l103.737 -44.6934l22.6172 -123.576l-70.6152 -123.49l-121.126 -44.7881l-103.737 44.7617l-22.6182 123.517l70.6172 123.517zM276 -15l-91 66l500 685l91 -67zM282.925 498.894l35.8936 13.668l25.2441 47.4736l-7.06836 47.3643l-30.5996 13.7686 l-35.9785 -13.667l-26.0947 -47.4658l7.75684 -47.4062zM699.598 328.333l103.854 -44.6943l22.6709 -123.584l-70.6904 -123.627l-121.137 -44.7363l-103.77 44.7695l-22.5859 123.594l70.6699 123.551zM654.787 98.8369l36.085 13.752l26.0713 47.5518l-7.88379 47.3027 l-30.9727 13.8291l-35.9248 -13.7266l-25.2129 -47.4053l7.11816 -47.4922z" horiz-adv-x="822"/>
   <glyph glyph-name="arrowleft" horiz-adv-x="1066" unicode="←" d="M589.24 440.155l-209.562 -114.159h636.428v-124.84h-636.428l209.562 -114.16l-73.0332 -121.054l-416.207 250.817v93.6299l416.207 250.819z"/>
   <glyph glyph-name="arrowup" horiz-adv-x="615" unicode="↑" d="M484.213 232.388l-114.158 209.562v-640.927h-124.841v640.927l-114.159 -209.562l-121.055 73.0332l250.818 416.207h93.6299l250.819 -416.207z"/>
   <glyph glyph-name="arrowright" horiz-adv-x="1066" unicode="→" d="M476.865 86.9961l209.562 114.16h-636.427v124.84h636.427l-209.562 114.16l73.0332 121.054l416.207 -250.818v-93.6299l-416.207 -250.819z"/>
   <glyph glyph-name="arrowdown" horiz-adv-x="615" unicode="↓" d="M131.054 290.264l114.159 -209.562v640.927h124.84v-640.927l114.16 209.562l121.055 -73.0332l-250.818 -416.207h-93.6299l-250.819 416.207z"/>
   <glyph glyph-name="arrowboth" horiz-adv-x="1237" unicode="↔" d="M589.239 86.9961l-73.0332 -121.055l-416.206 250.818v93.6299l416.206 250.818l73.0332 -121.054l-209.562 -114.16h478.299l-209.562 114.16l73.0332 121.054l416.206 -250.818v-93.6299l-416.206 -250.818l-73.0332 121.055l209.562 114.159h-478.299z"/>
   <glyph glyph-name="arrowupdn" horiz-adv-x="1000" unicode="↕" d="M141.055 378.673l-121.055 73.0332l250.819 416.207h93.6299l250.817 -416.207l-121.054 -73.0332l-114.16 209.562v-508.303l114.16 209.562l121.054 -73.0332l-250.817 -416.207h-93.6299l-250.819 416.207l121.055 73.0332l114.159 -209.562v508.303z"/>
   <glyph glyph-name="uni2196" horiz-adv-x="775" unicode="↖" d="M533.907 384.443l-228.903 67.46l450.021 -450.021l-88.2754 -88.2754l-450.021 450.021l67.459 -228.904l-137.24 -33.9561l-116.946 471.657l66.207 66.207l471.657 -116.946z"/>
   <glyph glyph-name="uni2197" horiz-adv-x="775" unicode="↗" d="M490.837 132.279l67.46 228.903l-450.021 -450.021l-88.2754 88.2754l450.021 450.021l-228.904 -67.459l-33.9561 137.24l471.657 116.947l66.207 -66.207l-116.946 -471.658z"/>
   <glyph glyph-name="uni2198" horiz-adv-x="775" unicode="↘" d="M241.118 171.251l228.903 -67.46l-450.021 450.021l88.2754 88.2754l450.021 -450.021l-67.46 228.904l137.24 33.9561l116.947 -471.657l-66.207 -66.207l-471.658 116.946z"/>
   <glyph glyph-name="uni2199" horiz-adv-x="775" unicode="↙" d="M284.188 423.414l-67.4609 -228.903l450.021 450.021l88.2754 -88.2754l-450.021 -450.021l228.904 67.459l33.9561 -137.239l-471.657 -116.947l-66.207 66.207l116.946 471.658z"/>
   </font>
</defs>
</svg>
